<svg width="100" height="100" viewBox="0 0 100 100" fill="none" xmlns="http://www.w3.org/2000/svg">
<circle cx="50" cy="50" r="50" fill="white"/>
<g clip-path="url(#clip0_428_11)">
<path d="M50.4418 25V73.8835L26 49.4418L50.4418 25Z" fill="#D8C879"/>
<path d="M50.4418 64.9998V33.8833L66 49.4415L50.4418 64.9998Z" fill="#E8DEAF"/>
</g>
<path d="M40.1152 85.6602V89H38.9902V80.4688H42.1367C43.0703 80.4688 43.8008 80.707 44.3281 81.1836C44.8594 81.6602 45.125 82.291 45.125 83.0762C45.125 83.9043 44.8652 84.543 44.3457 84.9922C43.8301 85.4375 43.0898 85.6602 42.125 85.6602H40.1152ZM40.1152 84.7402H42.1367C42.7383 84.7402 43.1992 84.5996 43.5195 84.3184C43.8398 84.0332 44 83.623 44 83.0879C44 82.5801 43.8398 82.1738 43.5195 81.8691C43.1992 81.5645 42.7598 81.4062 42.2012 81.3945H40.1152V84.7402ZM49.4551 83.6328C49.291 83.6055 49.1133 83.5918 48.9219 83.5918C48.2109 83.5918 47.7285 83.8945 47.4746 84.5V89H46.3906V82.6602H47.4453L47.4629 83.3926C47.8184 82.8262 48.3223 82.543 48.9746 82.543C49.1855 82.543 49.3457 82.5703 49.4551 82.625V83.6328ZM52.9707 89.1172C52.1113 89.1172 51.4121 88.8359 50.873 88.2734C50.334 87.707 50.0645 86.9512 50.0645 86.0059V85.8066C50.0645 85.1777 50.1836 84.6172 50.4219 84.125C50.6641 83.6289 51 83.2422 51.4297 82.9648C51.8633 82.6836 52.332 82.543 52.8359 82.543C53.6602 82.543 54.3008 82.8145 54.7578 83.3574C55.2148 83.9004 55.4434 84.6777 55.4434 85.6895V86.1406H51.1484C51.1641 86.7656 51.3457 87.2715 51.6934 87.6582C52.0449 88.041 52.4902 88.2324 53.0293 88.2324C53.4121 88.2324 53.7363 88.1543 54.002 87.998C54.2676 87.8418 54.5 87.6348 54.6992 87.377L55.3613 87.8926C54.8301 88.709 54.0332 89.1172 52.9707 89.1172ZM52.8359 83.4336C52.3984 83.4336 52.0312 83.5938 51.7344 83.9141C51.4375 84.2305 51.2539 84.6758 51.1836 85.25H54.3594V85.168C54.3281 84.6172 54.1797 84.1914 53.9141 83.8906C53.6484 83.5859 53.2891 83.4336 52.8359 83.4336ZM58.7129 87.5293L60.2832 82.6602H61.3906L59.1172 89H58.291L55.9941 82.6602H57.1016L58.7129 87.5293Z" fill="#D8C879"/>
<defs>
<clipPath id="clip0_428_11">
<rect width="40" height="48.8835" fill="white" transform="translate(26 25)"/>
</clipPath>
</defs>
</svg>
