<svg width="100" height="100" viewBox="0 0 100 100" fill="none" xmlns="http://www.w3.org/2000/svg">
<circle cx="50" cy="50" r="50" fill="white"/>
<g clip-path="url(#clip0_428_12)">
<path d="M45.5582 74.8838L45.5582 26.0003L70 50.442L45.5582 74.8838Z" fill="#D8C879"/>
<path d="M45.5582 34.884L45.5582 66.0005L30 50.4422L45.5582 34.884Z" fill="#E8DEAF"/>
</g>
<path d="M45.5469 90H44.416L40.1211 83.4258V90H38.9902V81.4688H40.1211L44.4277 88.0723V81.4688H45.5469V90ZM50.0059 90.1172C49.1465 90.1172 48.4473 89.8359 47.9082 89.2734C47.3691 88.707 47.0996 87.9512 47.0996 87.0059V86.8066C47.0996 86.1777 47.2188 85.6172 47.457 85.125C47.6992 84.6289 48.0352 84.2422 48.4648 83.9648C48.8984 83.6836 49.3672 83.543 49.8711 83.543C50.6953 83.543 51.3359 83.8145 51.793 84.3574C52.25 84.9004 52.4785 85.6777 52.4785 86.6895V87.1406H48.1836C48.1992 87.7656 48.3809 88.2715 48.7285 88.6582C49.0801 89.041 49.5254 89.2324 50.0645 89.2324C50.4473 89.2324 50.7715 89.1543 51.0371 88.998C51.3027 88.8418 51.5352 88.6348 51.7344 88.377L52.3965 88.8926C51.8652 89.709 51.0684 90.1172 50.0059 90.1172ZM49.8711 84.4336C49.4336 84.4336 49.0664 84.5938 48.7695 84.9141C48.4727 85.2305 48.2891 85.6758 48.2188 86.25H51.3945V86.168C51.3633 85.6172 51.2148 85.1914 50.9492 84.8906C50.6836 84.5859 50.3242 84.4336 49.8711 84.4336ZM55.8652 85.9746L57.2715 83.6602H58.5371L56.4629 86.7949L58.6016 90H57.3477L55.8828 87.627L54.418 90H53.1582L55.2969 86.7949L53.2227 83.6602H54.4766L55.8652 85.9746ZM61.1621 82.125V83.6602H62.3457V84.498H61.1621V88.4297C61.1621 88.6836 61.2148 88.875 61.3203 89.0039C61.4258 89.1289 61.6055 89.1914 61.8594 89.1914C61.9844 89.1914 62.1562 89.168 62.375 89.1211V90C62.0898 90.0781 61.8125 90.1172 61.543 90.1172C61.0586 90.1172 60.6934 89.9707 60.4473 89.6777C60.2012 89.3848 60.0781 88.9688 60.0781 88.4297V84.498H58.9238V83.6602H60.0781V82.125H61.1621Z" fill="#D8C879"/>
<defs>
<clipPath id="clip0_428_12">
<rect width="40" height="48.8835" fill="white" transform="translate(70 74.8838) rotate(-180)"/>
</clipPath>
</defs>
</svg>
