<svg width="63" height="38" viewBox="0 0 63 38" fill="none" xmlns="http://www.w3.org/2000/svg">
<path d="M17.8192 7.38007H58.8672C60.9077 7.38007 62.5572 5.72694 62.5572 3.69004C62.5572 1.64945 60.9077 0 58.8672 0H17.8192L14.1292 3.69004L17.8192 7.38007Z" fill="#202020"/>
<path d="M14.1292 7.38007L10.4391 3.69004L14.1292 0H3.69004L0 3.69004L3.69004 7.38007H14.1292Z" fill="#202020"/>
<path d="M44.738 30.6199H3.69004C1.64945 30.6199 0 32.2731 0 34.31C0 36.3506 1.64945 38 3.69004 38H44.738L48.428 34.31L44.738 30.6199Z" fill="#202020"/>
<path d="M48.4281 30.6199L52.1181 34.31L48.4281 38H58.8672L62.5572 34.31L58.8672 30.6199H48.4281Z" fill="#202020"/>
<path d="M58.8672 15.3542H44.738H17.8192H3.69004C1.64945 15.3542 0 17.0074 0 19.0443C0 21.0849 1.64945 22.7343 3.69004 22.7343H17.8192H44.738H58.8672C60.9077 22.7343 62.5572 21.0812 62.5572 19.0443C62.5572 17.0037 60.9077 15.3542 58.8672 15.3542Z" fill="#202020"/>
</svg>
