<svg width="69" height="69" viewBox="0 0 69 69" fill="none" xmlns="http://www.w3.org/2000/svg">
<g clip-path="url(#clip0_113_55)">
<path d="M29.7201 35.3511C29.6787 35.9286 29.388 36.3928 28.7717 36.066C28.2409 35.7846 27.9648 34.7428 28.0114 33.9412C28.0368 33.5237 28.1261 33.1022 28.485 33.0342C29.3279 32.8768 29.7841 34.4467 29.7201 35.3511Z" fill="black"/>
<path d="M41.1084 37.6147C41.0884 39.0419 39.6959 40.117 38.6422 40.5731C37.5204 41.0587 35.545 40.9506 34.2298 40.5491C33.6149 40.3637 33.1281 40.1303 32.6639 39.7875C32.2771 39.4967 31.7475 39.0192 31.7862 38.355C31.8169 37.9054 32.169 37.5586 32.4531 37.3986C33.2521 36.9504 34.3659 37.1278 35.1782 37.2545L35.3636 37.2799C35.8091 37.3532 36.2519 37.4373 36.484 37.492C36.9042 37.5773 37.431 37.7467 37.8112 37.66C38.6115 37.4813 38.9436 36.2328 39.876 36.1101C40.7176 35.9994 41.1231 36.7623 41.1084 37.6147Z" fill="black"/>
<path d="M41.9661 33.1783C41.9234 33.7279 41.5993 34.1173 41.0604 33.7265C40.747 33.4944 40.5002 32.9169 40.4228 32.3647C40.3495 31.8631 40.3881 31.1962 40.7563 31.1015C40.9177 31.0575 41.1965 31.1375 41.3485 31.2669C41.7166 31.591 42.0168 32.4514 41.9661 33.1783Z" fill="black"/>
<path d="M34.3659 0.707275C15.5107 0.707275 0.219513 15.9984 0.219513 34.8536C0.219513 53.7088 15.5107 69 34.3659 69C53.221 69 68.5122 53.7088 68.5122 34.8536C68.5122 15.9984 53.221 0.707275 34.3659 0.707275ZM17.4061 30.6707C17.5074 30.1852 17.8449 29.853 18.1397 29.5489C18.4465 29.2368 18.7332 28.9047 19.0427 28.5952C18.6879 27.9803 18.3638 27.4121 18.093 26.7585C17.8249 26.1103 17.5501 25.3567 17.5474 24.5163C17.5434 22.9157 18.4598 21.5672 19.4695 20.6495C20.5072 19.7078 21.8931 18.9235 23.5044 18.8368C25.7799 18.7155 27.0964 19.8532 28.1555 21.079C28.5596 20.8856 28.9318 20.5922 29.3173 20.3388C29.6801 20.104 30.0922 19.7092 30.6004 19.8626C30.7471 20.2894 30.3657 20.5882 30.1256 20.8176C29.3533 21.5539 28.4689 22.2248 27.6566 22.9184C25.4705 24.7938 22.7508 27.044 19.9977 29.2515L19.3028 29.7904C19.048 29.9998 18.7626 30.2105 18.4651 30.4079L18.4251 30.4333C18.1623 30.604 17.7689 30.9508 17.4061 30.6707ZM20.6326 48.7096C20.6273 48.6042 20.5859 48.5375 20.5859 48.4255C20.9794 48.3854 21.3236 48.2934 21.6997 48.2347C21.729 48.3174 21.7517 48.4028 21.7491 48.5175C21.3716 48.5762 21.0274 48.6695 20.6326 48.7096ZM22.8881 48.3281C22.8588 48.2427 22.8415 48.1453 22.8388 48.0453C23.2029 47.988 23.5777 47.9399 23.9299 47.8759C24.0166 47.9079 23.9779 48.068 24.0019 48.1587C23.6311 48.216 23.2603 48.2747 22.8881 48.3281ZM26.2574 47.8759C25.8853 47.9079 25.4425 47.9946 25.1197 47.9946C25.1357 47.8826 25.0903 47.8292 25.093 47.7319C25.4545 47.6665 25.8519 47.6358 26.2321 47.5891C26.2241 47.7038 26.2761 47.7519 26.2574 47.8759ZM28.5116 47.6625C28.1395 47.6905 27.77 47.7305 27.3952 47.7559C27.3645 47.6838 27.3699 47.5745 27.3712 47.4704C27.7513 47.4357 28.1195 47.3931 28.5116 47.3731V47.6625ZM30.7898 47.5198C30.395 47.5224 30.0549 47.5745 29.6494 47.5651V47.281C30.0495 47.2824 30.3897 47.229 30.7898 47.2317V47.5198ZM33.064 47.4438C32.6599 47.4264 32.3184 47.4744 31.9276 47.4704V47.185C32.1904 47.165 32.4971 47.1556 32.8066 47.1556C32.8933 47.1556 32.9787 47.157 33.064 47.1583V47.4438ZM35.3449 47.4438C34.9461 47.4584 34.5806 47.4304 34.2045 47.4211V47.1356C34.6019 47.1236 34.9728 47.1436 35.3449 47.1583V47.4438ZM37.5978 47.5184C37.239 47.4891 36.8548 47.4838 36.4827 47.4704V47.185C36.8761 47.189 37.259 47.197 37.6231 47.2303C37.6124 47.3277 37.6418 47.4584 37.5978 47.5184ZM39.8746 47.6612C39.5091 47.6131 39.093 47.6171 38.7355 47.5638C38.7515 47.4958 38.7595 47.4211 38.7595 47.3397C38.7595 47.3197 38.7595 47.2984 38.7582 47.2797C39.1237 47.3277 39.5385 47.321 39.896 47.3717C39.9146 47.4931 39.876 47.5585 39.8746 47.6612ZM42.1288 47.8759C41.77 47.8239 41.3859 47.7999 41.0137 47.7559C40.9991 47.6358 41.0377 47.5718 41.0377 47.4704C41.4232 47.5038 41.8087 47.5398 42.1755 47.5891C42.1462 47.6718 42.1688 47.8026 42.1288 47.8759ZM44.4057 48.1587C44.0389 48.0947 43.6321 48.068 43.2666 47.9946C43.2813 47.9106 43.3026 47.8372 43.2906 47.7319C43.6187 47.7425 44.0722 47.8212 44.4297 47.8759C44.447 47.9973 44.391 48.04 44.4057 48.1587ZM46.6866 48.2254C46.6866 48.3294 46.6692 48.4268 46.6372 48.5202C46.2837 48.4401 45.8902 48.4001 45.5221 48.3294C45.5261 48.2294 45.5421 48.1347 45.5715 48.0453C45.9489 48.0907 46.2931 48.1747 46.6866 48.212V48.2254ZM48.8914 48.9243C48.4899 48.8936 48.1818 48.7656 47.7763 48.7322C47.7496 48.6722 47.799 48.5148 47.8243 48.4255C48.1898 48.5015 48.5539 48.5829 48.9407 48.6389C48.9354 48.7429 48.8914 48.8109 48.8914 48.9243ZM51.2883 53.0779C51.2283 53.29 50.9428 53.358 50.7668 53.4594V53.2726C50.7668 51.9575 50.7321 50.653 50.6707 49.3551C50.492 49.2124 50.0372 49.2885 50.0091 49.1177C49.9451 48.7536 50.392 48.987 50.6494 49.023C50.5854 47.1877 50.396 45.4723 50.1759 43.7957C49.9651 43.689 49.6944 43.6436 49.4623 43.5583C49.0995 43.9317 48.5486 44.9135 47.7069 44.728C47.3922 44.66 47.1854 44.2345 47.0414 43.9411C46.884 43.6316 46.7532 43.2742 46.6679 42.8994L46.6612 42.8673C39.6599 41.5162 30.0322 41.4001 22.9842 42.7953C22.7654 43.7383 22.3666 45.7564 21.0621 44.9868C20.5339 44.6493 20.1311 44.1585 19.907 43.5769L19.9003 43.5569C19.7243 43.6116 19.4615 43.6783 19.1921 43.7343L19.1147 43.749C18.8386 45.3136 18.7012 47.0209 18.6185 48.7843C18.8559 48.7976 19.2148 48.6082 19.4708 48.6389C19.4775 48.7349 19.5109 48.8043 19.5189 48.899C19.2801 49.0524 18.892 49.051 18.5932 49.1391C18.5305 50.2128 18.4945 51.4679 18.4945 52.7351C18.4945 52.9672 18.4958 53.2006 18.4985 53.4327C18.3824 53.4647 18.1077 53.2566 17.9996 53.1259C18.093 49.806 18.2571 46.5567 18.5212 43.4129C18.9226 43.2875 19.3375 43.1675 19.7323 43.0314C19.6763 42.4792 19.5655 41.8376 19.8043 41.4588C20.0057 41.1347 20.5673 40.9506 20.9661 40.8346C22.3866 40.4304 23.8058 40.7625 24.7395 41.4308C24.9409 41.5775 25.0943 41.7763 25.3091 41.863C25.3451 41.7322 25.1744 41.6455 25.0943 41.5748C24.282 40.8372 22.9455 40.1917 21.3476 40.4771C20.8487 38.9032 20.2151 37.3853 20.2085 35.3712C20.2018 33.1303 21.0154 31.1896 21.9385 29.6676C22.8855 28.1137 24.15 26.8492 25.5225 25.8515C28.1835 23.9228 31.5114 22.769 35.1048 22.769C35.7997 22.769 36.484 22.8144 37.1563 22.8984C41.4566 23.4386 44.315 25.4834 46.3784 28.4525C47.3681 29.8811 48.1684 31.591 48.702 33.5385C49.2395 35.4885 49.2449 38.0082 48.63 40.0743C46.6465 39.6648 44.8472 40.289 44.1469 41.5535C44.1416 41.5748 44.1242 41.5775 44.1242 41.6015C44.8378 40.6225 46.6132 39.9155 48.3939 40.3597C48.8647 40.4784 49.4649 40.6478 49.697 40.9799C50.0185 41.4388 49.8718 42.4085 49.6744 42.962C49.8971 43.0954 50.3479 43.1034 50.5267 43.3168C50.6681 43.4836 50.7334 44.0184 50.7881 44.3919C51.0802 46.2606 51.2003 48.4428 51.2643 50.4782C51.2763 50.8624 51.2883 51.3199 51.2883 51.7641C51.2883 52.1949 51.3737 52.7804 51.2883 53.0779Z" fill="#404041"/>
</g>
<defs>
<clipPath id="clip0_113_55">
<rect width="68.2927" height="68.2927" fill="white" transform="translate(0.219513 0.707275)"/>
</clipPath>
</defs>
</svg>
