<svg width="60" height="60" viewBox="0 0 60 60" fill="none" xmlns="http://www.w3.org/2000/svg">
<path d="M21.4373 15.1599L56.3582 50.0809C58.0943 51.8169 58.0911 54.6265 56.3582 56.3594C54.6222 58.0954 51.8158 58.0954 50.0798 56.3594L15.1588 21.4384L15.1588 15.1599L21.4373 15.1599Z" fill="#202020"/>
<path d="M18.2987 12.0202L12.0202 12.0202L12.0202 18.2987L3.13925 9.41773L3.13925 3.13924L9.41774 3.13924L18.2987 12.0202Z" fill="#202020"/>
<path d="M38.0602 15.1596L3.13925 50.0806C1.40324 51.8166 1.40638 54.6262 3.13925 56.3591C4.87525 58.0951 7.68174 58.0951 9.41774 56.3591L44.3387 21.4381L44.3387 15.1596L38.0602 15.1596Z" fill="#202020"/>
<path d="M41.1997 12.0202L47.4782 12.0202V18.2987L56.3591 9.41774L56.3591 3.13925L50.0806 3.13925L41.1997 12.0202Z" fill="#202020"/>
</svg>
