<svg width="69" height="69" viewBox="0 0 69 69" fill="none" xmlns="http://www.w3.org/2000/svg">
<g clip-path="url(#clip0_111_3)">
<path d="M34.1463 0.707275C15.2912 0.707275 0 15.9984 0 34.8536C0 53.7088 15.2912 69 34.1463 69C53.0015 69 68.2927 53.7088 68.2927 34.8536C68.2927 15.9984 53.0015 0.707275 34.1463 0.707275ZM49.7376 27.3308C49.7523 27.6669 49.7603 28.0043 49.7603 28.3431C49.7603 38.6991 41.8773 50.6423 27.4611 50.6423C23.0354 50.6423 18.9165 49.3445 15.4472 47.1223C16.0608 47.1943 16.685 47.2303 17.3159 47.2303C20.988 47.2303 24.368 45.9779 27.0503 43.8757C23.6197 43.8117 20.7266 41.5468 19.7289 38.4323C20.2064 38.5243 20.6986 38.5737 21.2014 38.5737C21.9163 38.5737 22.6099 38.4777 23.2689 38.2976C19.6822 37.58 16.9811 34.4108 16.9811 30.6147C16.9811 30.5787 16.9811 30.548 16.9825 30.5146C18.0389 31.1015 19.246 31.455 20.5318 31.495C18.427 30.0905 17.0438 27.6909 17.0438 24.9712C17.0438 23.5346 17.432 22.1901 18.1056 21.031C21.971 25.7728 27.7466 28.8927 34.2611 29.2195C34.1263 28.6459 34.057 28.047 34.057 27.4321C34.057 23.1051 37.5676 19.5958 41.896 19.5958C44.1502 19.5958 46.1869 20.5495 47.6168 22.0727C49.4028 21.7206 51.0795 21.0684 52.5934 20.1707C52.0078 21.9994 50.7647 23.5346 49.1467 24.5057C50.7327 24.3163 52.2426 23.8961 53.6471 23.2719C52.5974 24.8445 51.2675 26.225 49.7376 27.3308Z" fill="#404041"/>
</g>
<defs>
<clipPath id="clip0_111_3">
<rect width="68.2927" height="68.2927" fill="white" transform="translate(0 0.707275)"/>
</clipPath>
</defs>
</svg>
