<svg width="69" height="69" viewBox="0 0 69 69" fill="none" xmlns="http://www.w3.org/2000/svg">
<g clip-path="url(#clip0_111_6)">
<path d="M41.3651 34.8537C41.3651 38.4631 38.4386 41.3895 34.8293 41.3895C31.2199 41.3895 28.2934 38.4631 28.2934 34.8537C28.2934 31.2443 31.2199 28.3179 34.8293 28.3179C38.4386 28.3179 41.3651 31.2443 41.3651 34.8537Z" fill="currentColor"/>
<path d="M50.1138 23.2891C49.799 22.4381 49.2988 21.6672 48.6465 21.0349C48.0143 20.384 47.2433 19.8825 46.3923 19.5677C45.7014 19.2996 44.6637 18.9795 42.7523 18.8928C40.6848 18.7981 40.0646 18.7781 34.8293 18.7781C29.5939 18.7781 28.9737 18.7981 26.9062 18.8928C24.9949 18.9808 23.9558 19.2996 23.2662 19.5677C22.4139 19.8825 21.6442 20.3827 21.012 21.0349C20.3611 21.6672 19.8596 22.4381 19.5448 23.2891C19.2767 23.9801 18.9566 25.0178 18.8699 26.9305C18.7751 28.998 18.7551 29.6182 18.7551 34.8535C18.7551 40.0889 18.7751 40.7091 18.8699 42.7765C18.9566 44.6879 19.2767 45.7257 19.5448 46.4166C19.8596 47.2689 20.3598 48.0385 21.012 48.6708C21.6442 49.3217 22.4152 49.8232 23.2662 50.138C23.9571 50.4074 24.9962 50.7262 26.9076 50.8129C28.975 50.9076 29.5939 50.9277 34.8306 50.9277C40.0673 50.9277 40.6875 50.9076 42.7536 50.8129C44.665 50.7262 45.7041 50.4061 46.395 50.138C48.105 49.4778 49.4562 48.1266 50.1164 46.4166C50.3845 45.7257 50.7046 44.6879 50.7913 42.7765C50.8861 40.7091 50.9061 40.0889 50.9061 34.8535C50.9061 29.6182 50.8861 28.998 50.7913 26.9305C50.702 25.0191 50.3832 23.9801 50.1138 23.2891ZM34.8293 44.9214C29.2685 44.9214 24.7601 40.4143 24.7601 34.8535C24.7601 29.2927 29.2685 24.7857 34.8293 24.7857C40.3901 24.7857 44.8971 29.2927 44.8971 34.8535C44.8971 40.4143 40.3901 44.9214 34.8293 44.9214ZM45.2959 26.7398C43.9968 26.7398 42.943 25.686 42.943 24.3869C42.943 23.0877 43.9968 22.034 45.2959 22.034C46.5951 22.034 47.6488 23.0877 47.6488 24.3869C47.6475 25.686 46.5951 26.7398 45.2959 26.7398Z" fill="currentColor"/>
<path d="M34.8293 0.707275C15.9741 0.707275 0.682922 15.9984 0.682922 34.8536C0.682922 53.7088 15.9741 69 34.8293 69C53.6844 69 68.9756 53.7088 68.9756 34.8536C68.9756 15.9984 53.6844 0.707275 34.8293 0.707275ZM54.318 42.9367C54.2233 45.0242 53.8912 46.4487 53.407 47.6958C52.388 50.3302 50.3058 52.4123 47.6728 53.43C46.4257 53.9142 45.0011 54.2463 42.9137 54.341C40.8222 54.4384 40.1553 54.4611 34.8293 54.4611C29.5032 54.4611 28.8363 54.4384 26.7449 54.3424C24.6587 54.2477 23.2328 53.9155 21.9857 53.4314C20.6772 52.9392 19.4928 52.1669 18.5124 51.1692C17.5147 50.1901 16.7437 49.0043 16.2515 47.6958C15.7673 46.4487 15.4352 45.0228 15.3405 42.9367C15.2445 40.8466 15.2218 40.1783 15.2218 34.8536C15.2218 29.5289 15.2445 28.8607 15.3405 26.7692C15.4352 24.6817 15.766 23.2572 16.2515 22.0101C16.7437 20.7016 17.516 19.5158 18.5137 18.5367C19.4928 17.539 20.6785 16.7667 21.987 16.2745C23.2342 15.7904 24.6601 15.4582 26.7462 15.3635C28.8376 15.2675 29.5046 15.2448 34.8293 15.2448C40.154 15.2448 40.8222 15.2675 42.9137 15.3635C45.0011 15.4582 46.4257 15.7904 47.6728 16.2732C48.9813 16.7654 50.1671 17.5377 51.1461 18.5354C52.1439 19.5144 52.9162 20.7002 53.407 22.0087C53.8925 23.2559 54.2233 24.6804 54.3194 26.7679C54.4141 28.858 54.4367 29.5263 54.4367 34.8523C54.4367 40.1783 54.4141 40.8466 54.318 42.9367Z" fill="currentColor"/>
</g>
<defs>
<clipPath id="clip0_111_6">
<rect width="68.2927" height="68.2927" fill="white" transform="translate(0.682922 0.707275)"/>
</clipPath>
</defs>
</svg>
