<svg width="48" height="40" viewBox="0 0 48 40" fill="none" xmlns="http://www.w3.org/2000/svg">
<path d="M47.6923 20.238C46.3806 20.238 45.0689 20.238 43.7021 20.238C43.7021 18.9229 43.7021 17.6321 43.7021 16.3054C42.3459 16.3054 41.0459 16.3054 39.7214 16.3054C39.7214 22.8973 39.7214 29.4649 39.7214 36.0812C41.0342 36.0812 42.3248 36.0812 43.6494 36.0812C43.6494 37.4045 43.6494 38.6813 43.6494 39.9999C39.6909 39.9999 35.7183 39.9999 31.713 39.9999C31.713 38.7243 31.713 37.4486 31.713 36.1137C33.0188 36.1137 34.3199 36.1137 35.655 36.1137C35.655 29.4777 35.655 22.8985 35.655 16.2949C34.3481 16.2949 33.0563 16.2949 31.7106 16.2949C31.7106 17.5915 31.7106 18.8823 31.7106 20.2055C30.3532 20.2055 29.0509 20.2055 27.6935 20.2055C27.6935 19.985 27.6935 19.7737 27.6935 19.5625C27.6935 17.8921 27.69 16.2206 27.6947 14.5503C27.6994 13.0901 28.473 12.324 29.9512 12.3228C35.0291 12.3193 40.107 12.3414 45.1838 12.3077C46.4345 12.2996 47.2972 12.7128 47.6911 13.9247C47.6923 16.028 47.6923 18.1324 47.6923 20.238Z" fill="#7E6E1E"/>
<path d="M17.7559 4.02936C17.7559 14.7039 17.7559 25.3398 17.7559 36.0319C19.7139 36.0319 21.6602 36.0319 23.6309 36.0319C23.6309 37.38 23.6309 38.6718 23.6309 40C18.4017 40 13.1759 40 7.91436 40C7.91436 38.6965 7.91436 37.3953 7.91436 36.0425C9.87113 36.0425 11.8036 36.0425 13.765 36.0425C13.765 25.3468 13.765 14.7016 13.765 4.02467C10.5076 4.02467 7.26635 4.02467 3.96734 4.02467C3.96734 5.33523 3.96734 6.63875 3.96734 7.97278C2.62625 7.97278 1.34176 7.97278 0.0260876 7.97278C0.0180018 7.83785 0.00183023 7.70292 0.00183023 7.568C0.000675117 5.7846 -0.00163511 4.0012 0.00183023 2.21781C0.00414046 0.808688 0.786153 0.00381318 2.17691 0.0026399C11.2319 -0.000879965 20.288 -0.000879965 29.3429 0.0026399C30.766 0.0026399 31.5307 0.788742 31.5353 2.2401C31.5411 4.00824 31.5376 5.77521 31.5353 7.54336C31.5353 7.68063 31.5214 7.81791 31.5134 7.97865C30.2196 7.97865 28.9478 7.97865 27.6195 7.97865C27.6195 6.67278 27.6195 5.36926 27.6195 4.02936C24.3089 4.02936 21.0549 4.02936 17.7559 4.02936Z" fill="#7E6E1E"/>
</svg>
