<svg width="69" height="69" viewBox="0 0 69 69" fill="none" xmlns="http://www.w3.org/2000/svg">
<g clip-path="url(#clip0_111_11)">
<path d="M34.6829 0.707275C15.8278 0.707275 0.536591 15.9984 0.536591 34.8536C0.536591 53.7088 15.8278 69 34.6829 69C53.5381 69 68.8293 53.7088 68.8293 34.8536C68.8293 15.9984 53.5381 0.707275 34.6829 0.707275ZM22.589 52.7311H16.0665V16.9881H22.589V52.7311ZM53.298 30.6467C53.174 37.9415 47.1864 43.8144 39.9196 43.7904C32.5154 43.7904 26.4958 37.7827 26.5092 30.3826C26.5225 22.8691 32.7169 16.8094 40.2411 16.9801C47.4771 17.1442 53.4247 23.1585 53.298 30.6467Z" fill="currentColor"/>
</g>
<defs>
<clipPath id="clip0_111_11">
<rect width="68.2927" height="68.2927" fill="white" transform="translate(0.536591 0.707275)"/>
</clipPath>
</defs>
</svg>
