<svg width="69" height="69" viewBox="0 0 69 69" fill="none" xmlns="http://www.w3.org/2000/svg">
<g clip-path="url(#clip0_113_62)">
<path d="M31.9406 0C33.5412 0 35.1418 0 36.7424 0C37.8375 0.14939 38.9379 0.265434 40.0263 0.453506C45.8459 1.45789 51.0959 3.76277 55.6829 7.48819C62.2775 12.8436 66.3937 19.7022 67.9463 28.0707C68.1717 29.2872 68.3091 30.521 68.4878 31.7468C68.4878 33.3474 68.4878 34.948 68.4878 36.5486C68.3411 37.6223 68.229 38.7014 68.0423 39.7672C66.7085 47.4101 63.2298 53.9099 57.545 59.1946C52.6618 63.7336 46.9196 66.5987 40.3478 67.7658C39.1526 67.9779 37.9442 68.1206 36.7411 68.2954C35.1404 68.2954 33.5398 68.2954 31.9392 68.2954C31.1523 68.1926 30.3626 68.1006 29.577 67.9846C23.9455 67.1562 18.7889 65.1328 14.2151 61.7315C6.93903 56.3175 2.41064 49.1561 0.736669 40.2233C0.508582 39.0069 0.373864 37.7731 0.195129 36.5473C0.195129 34.9466 0.195129 33.346 0.195129 31.7454C0.293834 30.9785 0.381867 30.2102 0.49391 29.4446C1.45961 22.826 4.06327 16.9358 8.45428 11.8819C13.7643 5.7702 20.4082 1.94874 28.3992 0.522866C29.573 0.313453 30.7601 0.173399 31.9406 0ZM28.8234 36.8767C29.7264 36.1124 30.7054 35.5162 31.3737 34.6732C33.2877 32.2603 33.4798 29.4846 32.5048 26.6675C31.3923 23.4543 28.79 22.0871 25.6115 21.9017C22.3542 21.7123 19.0797 21.8043 15.8131 21.783C14.758 21.7763 14.4872 22.0631 14.4872 23.1422C14.4859 30.4556 14.4859 37.7691 14.4872 45.0812C14.4872 46.1616 14.7527 46.4297 15.8104 46.431C21.3899 46.4324 26.9693 46.431 32.5488 46.431C33.1263 46.431 33.7052 46.4524 34.2828 46.423C35.0658 46.3843 35.4246 45.6601 35.0084 44.9891C34.903 44.8197 34.7723 44.6664 34.6509 44.5076C32.6835 41.932 30.7161 39.355 28.8234 36.8767ZM53.1113 32.9099C54.2944 31.4907 54.5452 29.858 54.4998 28.1241C54.4131 24.8481 52.4537 22.3338 49.2085 22.0524C45.6338 21.743 42.0231 21.8457 38.4284 21.8016C37.8321 21.7936 37.528 22.1938 37.528 22.8154C37.532 30.3489 37.528 37.8824 37.5347 45.4146C37.5347 46.1296 37.8668 46.427 38.6298 46.4284C41.4082 46.4337 44.1852 46.4417 46.9636 46.4244C47.8506 46.419 48.743 46.395 49.6206 46.2856C51.6947 46.0269 53.5581 45.3146 55.048 43.7487C57.4236 41.253 57.4343 34.7879 53.1113 32.9099Z" fill="currentColor"/>
</g>
<defs>
<clipPath id="clip0_113_62">
<rect width="68.2927" height="68.2927" fill="white" transform="translate(0.195129)"/>
</clipPath>
</defs>
</svg>
