<svg width="356" height="156" viewBox="0 0 356 156" fill="none" xmlns="http://www.w3.org/2000/svg">
<path d="M92.2199 38.0347C87.1449 37.2709 82.0236 37.5281 77.3189 38.7598C77.0643 38.8241 76.8201 38.8909 76.581 38.9578L76.4576 38.9938C75.712 39.2021 74.9613 39.4515 74.2106 39.7189L73.9355 38.1092L72.5909 33.1901L71.3286 29.8369L68.3849 24.7327L64.9424 31.6832L64.5439 32.4649L77.2623 0.856934L92.2199 38.0347Z" fill="#D8C879"/>
<path d="M93.5824 113.84L77.2622 155.143L67.3564 130.058L70.133 126.114L72.7425 118.88L74.8096 112.601C75.4831 112.827 76.1567 113.041 76.8097 113.215C77.1002 113.298 77.3933 113.37 77.6684 113.431C80.5453 114.151 83.5276 114.514 86.5304 114.514C88.5511 114.514 90.6207 114.342 92.6698 113.997C92.9731 113.953 93.2739 113.899 93.5824 113.84Z" fill="#D8C879"/>
<path d="M125.55 78.82C125.622 77.9457 125.658 77.0149 125.658 76.0506C125.658 72.5792 125.159 69.1643 124.198 65.8523L154.406 78.01L122.534 90.8415C124.095 87.2723 125.095 83.4975 125.478 79.666C125.501 79.4269 125.524 79.1852 125.542 78.946L125.55 78.82Z" fill="#D8C879"/>
<path d="M34.7447 68.4058C34.6033 69.0076 34.4825 69.6196 34.3694 70.2393L33.4156 70.4938L25.4688 73.739L19.1392 77.4341L13.658 79.3936L9.35173 81.6513L0.150391 78.0101L31.5079 65.6184L32.5903 66.9247L34.7447 68.4058Z" fill="#D8C879"/>
<path d="M124.303 76.0533C124.303 76.9815 124.267 77.8764 124.2 78.7147L124.19 78.8407C124.172 79.0721 124.149 79.3061 124.125 79.5376C123.529 85.5496 121.349 91.4227 117.829 96.5141C117.544 96.9204 117.259 97.319 116.971 97.7047C112.027 104.298 104.98 109.227 97.1308 111.59C95.5471 112.066 93.9789 112.424 92.4543 112.663C87.5336 113.486 82.6462 113.282 77.9826 112.115C77.7101 112.051 77.4401 111.984 77.1727 111.912C76.368 111.696 75.5479 111.431 74.7201 111.143L74.607 111.102C74.4758 111.053 74.3499 111.002 74.2213 110.958C73.9462 110.855 73.6686 110.755 73.3986 110.647C73.2804 110.598 73.1595 110.546 73.0413 110.498C72.8613 110.426 72.689 110.348 72.5117 110.276C72.8587 110.235 73.1981 110.194 73.5195 110.153C76.6534 109.778 78.0109 109.616 78.6125 109.433C94.5033 106.316 106.039 92.2867 106.039 76.0558C106.039 75.1815 106.003 74.3098 105.939 73.4638C105.011 61.085 97.393 50.2053 86.0681 45.0701C83.3712 43.8435 80.5227 42.9795 77.5918 42.5038L77.5095 42.491C77.4555 42.4807 77.4015 42.473 77.3476 42.4601L76.7331 42.3753C76.5969 42.3573 76.4529 42.3444 76.3166 42.3264L72.0283 42.0513C72.4397 41.8661 72.8562 41.6938 73.2675 41.5318C73.4835 41.4418 73.702 41.3544 73.9231 41.2747L73.9359 41.2695C74.8949 40.8993 75.8667 40.5778 76.8308 40.3104L76.9568 40.2744C77.1779 40.2101 77.399 40.1433 77.6484 40.0841C82.7645 38.7495 88.346 38.5953 93.8426 39.7035C94.11 39.7575 94.3774 39.8218 94.6422 39.8835C107.024 42.6941 117.485 51.7147 121.951 63.4327C122.033 63.6358 122.105 63.839 122.182 64.0447L122.259 64.2658C123.614 68.0433 124.303 72.011 124.303 76.0533Z" fill="#D8C879"/>
<path d="M73.0415 110.492C72.8615 110.42 72.679 110.348 72.499 110.271H72.5119C72.6893 110.343 72.8615 110.42 73.0415 110.492Z" fill="#D8C879"/>
<path d="M104.589 73.5639C104.571 73.3042 104.543 73.047 104.517 72.795C104.317 72.7976 104.108 72.7744 103.916 72.8207C104 72.5482 103.916 72.0827 104 71.8282C103.054 72.075 102.131 72.8747 101.196 73.0727C99.9384 73.3247 99.7405 72.5559 98.8047 72.0287C96.7839 70.887 93.7374 72.8542 94.2876 68.8633C94.4341 67.8039 96.6348 64.2707 94.1564 64.1164C93.3569 64.0702 92.637 64.9907 91.5958 64.5047C90.8348 64.155 90.5931 63.4504 90.3 62.859C87.9014 60.7684 84.4949 65.379 83.1246 61.1927C82.3096 60.681 81.1296 60.969 80.1783 60.915C79.0754 60.861 78.6641 60.6322 77.7951 60.123C77.4917 58.143 79.3376 57.0425 80.7182 56.0756C82.6901 54.7025 82.0911 53.5505 81.8494 51.4625C80.6257 50.5805 80.6874 48.657 81.4869 47.595L81.6129 47.469C81.8186 46.9882 82.0551 46.9239 82.4819 46.6719C83.0372 46.3325 83.7596 46.0599 84.5566 45.8799C82.6438 45.0827 80.6565 44.4759 78.6152 44.0645L77.9468 44.3165C77.8748 44.3447 77.8002 44.3679 77.7308 44.3987C77.4274 44.499 77.1704 44.5993 76.903 44.7099C64.5317 49.6265 55.9062 62.7047 55.9062 76.5133C55.9062 83.1579 57.8139 89.5479 61.4337 94.9967L61.4774 95.0764C61.5854 95.3027 61.732 95.5162 61.9222 95.7219L62.1073 95.9816C65.8326 101.194 72.0851 105.794 78.5124 108.057C93.6885 105.002 104.684 91.5742 104.684 76.0479C104.682 75.2096 104.651 74.3739 104.589 73.5639ZM79.0908 90.2602C79.3556 90.7976 79.3402 90.8207 79.1988 90.9956L79.0086 91.2347L79.0188 91.5433C79.042 92.0987 79.2219 92.5282 79.5536 92.8264C80.0883 93.3073 81.5872 98.4399 81.6669 98.5067C81.6592 98.5093 80.965 99.6124 80.7825 100.034C80.7516 100.122 80.7028 100.222 80.6617 100.309C80.3789 100.273 79.9855 100.281 79.6513 100.507C79.4096 100.667 79.2708 100.875 79.1911 101.076C78.7977 100.867 78.0625 100.422 76.7153 99.471L76.7719 99.399L76.3502 98.8667C75.237 97.4781 73.7536 97.5553 72.5633 97.6144C71.7097 97.6582 70.977 97.6942 70.378 97.311C69.8972 96.9973 69.5321 96.5653 69.1516 96.0999C68.6632 95.5136 68.1027 94.845 67.2337 94.3873C66.8661 94.1919 66.5293 94.0273 66.2105 93.873C65.1667 93.3613 64.4854 93.0296 63.6653 92.1167C63.4108 91.8262 63.1948 91.5459 63.0174 91.2579L62.8812 91.0162C62.7706 90.7384 62.6678 90.453 62.5649 90.1676C62.3593 89.1982 62.6421 88.1722 63.0226 86.7579C63.0997 86.4724 63.182 86.1716 63.2617 85.8579L63.3414 85.5416C63.4879 84.9399 63.5907 84.5079 63.9147 84.0939C64.0998 83.8573 64.3749 83.6593 64.668 83.4587C65.1127 83.1476 65.6166 82.7979 65.9714 82.2039C66.2825 81.6793 66.3802 81.1213 66.4625 80.6327C66.5576 80.085 66.627 79.7353 66.8712 79.5322C67.4445 79.0384 68.4138 79.2904 69.7172 79.7044C70.2366 79.8664 70.7276 80.0207 71.211 80.1056C72.7561 80.3602 73.2651 80.049 73.9593 79.5167C74.1572 79.3676 74.3526 79.2159 74.6354 79.0513C75.417 78.5962 75.9877 78.6502 77.1781 79.2853C78.4712 79.977 79.2142 80.0336 80.2452 80.1133C80.4971 80.1313 80.7696 80.157 81.091 80.1904C82.3225 80.3267 82.5847 80.8796 82.667 81.0596C83.14 82.0727 82.4844 83.955 81.5923 85.287C81.3635 85.6264 80.893 85.9993 80.4406 86.3516C79.7901 86.8659 79.1705 87.3493 78.8826 87.9896C78.443 88.9564 78.8337 89.7382 79.0908 90.2602Z" fill="#D8C879"/>
<path d="M57.544 43.7431C51.7851 45.5122 46.525 48.9194 42.4501 53.5248L40.9898 48.3588L40.7455 41.5368L39.5835 36.4917L39.167 32.0405L47.2448 36.3888L51.6643 40.1765L57.544 43.7431Z" fill="#D8C879"/>
<path d="M72.9207 40.1973C71.4424 40.781 69.9616 41.483 68.5244 42.2879C68.5013 42.2879 68.4781 42.293 68.4576 42.293C67.9768 42.3033 67.5038 42.311 67.0384 42.311C66.5191 42.311 65.9972 42.329 65.4779 42.3573C65.3159 42.3624 65.1514 42.3753 64.9843 42.3881C64.6218 42.4113 64.2593 42.437 63.8942 42.473C63.7091 42.491 63.524 42.509 63.3414 42.5321C62.9789 42.5733 62.6216 42.6221 62.2642 42.6761C62.092 42.6993 61.9197 42.7224 61.7475 42.7533C61.6755 42.7636 61.6035 42.7713 61.5264 42.7841L62.128 41.5216L64.3904 35.7976L66.1592 32.2876L68.4833 27.5999L70.085 30.3693L71.2984 33.5759L72.6096 38.3664L72.9207 40.1973Z" fill="#D8C879"/>
<path d="M73.5297 112.148L71.4627 118.438L68.9201 125.484L66.0792 129.516L62.5236 135.289L61.197 131.362L59.5645 126.965L58.6827 120.657L56.4485 113.478L55.667 108.669C55.7441 108.697 55.8212 108.723 55.8984 108.751C56.0655 108.811 56.2326 108.87 56.3971 108.929C56.7185 109.037 57.045 109.145 57.3664 109.25C57.5438 109.304 57.7134 109.353 57.8908 109.405C58.2071 109.5 58.5284 109.59 58.8498 109.677C59.0298 109.723 59.2123 109.767 59.3923 109.813C59.7085 109.891 60.0298 109.963 60.3512 110.029C60.5363 110.065 60.7188 110.107 60.8988 110.137C61.2253 110.202 61.5493 110.261 61.8758 110.31C62.0557 110.341 62.2383 110.369 62.4182 110.395C62.7576 110.443 63.0969 110.485 63.4363 110.521C63.6086 110.539 63.7757 110.562 63.9479 110.575C64.3233 110.611 64.6986 110.639 65.0791 110.659C65.2154 110.67 65.3465 110.677 65.4828 110.688C65.9995 110.711 66.5188 110.724 67.0382 110.724C67.1616 110.724 67.2773 110.719 67.4007 110.719C67.668 110.713 67.9354 110.708 68.1925 110.701C68.3699 110.695 68.5396 110.683 68.7118 110.672C68.789 110.667 68.8661 110.667 68.9458 110.659C69.0898 110.659 69.2389 110.649 69.406 110.636C69.4111 110.631 69.4163 110.631 69.4188 110.631H69.424C69.6039 110.621 69.7916 110.608 69.9767 110.59C71.1002 111.161 72.2957 111.68 73.5297 112.148Z" fill="#D8C879"/>
<path d="M40.6269 55.7467C40.6089 55.7698 40.5961 55.793 40.5781 55.8135C40.5729 55.8238 40.5652 55.8315 40.5601 55.8418C40.4881 55.937 40.4187 56.0372 40.3467 56.1401C40.2927 56.207 40.2387 56.2815 40.1873 56.3535C40.159 56.3844 40.1462 56.4075 40.1333 56.4255C40.1333 56.4307 40.1282 56.4358 40.123 56.4384C40.051 56.5412 39.9816 56.6415 39.9199 56.7418C39.8531 56.8421 39.7837 56.9398 39.7117 57.0504C39.6474 57.1404 39.5857 57.2355 39.5214 57.3307C39.4906 57.3795 39.4572 57.4258 39.4263 57.4747C39.3955 57.5235 39.362 57.575 39.326 57.6238C39.2952 57.6778 39.2618 57.7267 39.2258 57.7832C39.1255 57.9452 39.0175 58.1175 38.9095 58.295L38.8813 58.3361C38.8761 58.3412 38.8761 58.3464 38.871 58.349C38.8478 58.3901 38.8247 58.4261 38.8041 58.4621C38.7939 58.475 38.7861 58.4904 38.781 58.5032C38.7759 58.5135 38.7707 58.5212 38.7682 58.5264L38.5728 58.8478C38.5136 58.9481 38.4545 59.0458 38.3954 59.1461C38.3774 59.1821 38.3542 59.2181 38.3362 59.249C38.3054 59.2978 38.2771 59.3518 38.2514 59.4032C38.2283 59.4392 38.2103 59.4804 38.1794 59.5292C38.1794 59.5344 38.1743 59.5344 38.1743 59.5395C38.164 59.5575 38.1511 59.5755 38.1434 59.5935C38.1331 59.6115 38.1254 59.6295 38.1126 59.6475C38.0997 59.6707 38.0843 59.6964 38.0714 59.7247C38.0611 59.7375 38.0534 59.753 38.0483 59.7658C38.038 59.7838 38.0303 59.7967 38.02 59.8147C38.0072 59.8327 37.9969 59.8507 37.9892 59.8738C37.9609 59.9201 37.9403 59.9638 37.9172 60.0101C37.8992 60.041 37.8863 60.0641 37.8683 60.095L37.8375 60.1541C37.8375 60.1592 37.8375 60.1592 37.8375 60.1644C37.8195 60.1927 37.8066 60.2132 37.7963 60.2364C37.7912 60.2415 37.7912 60.2467 37.7861 60.2492C37.7758 60.2672 37.7681 60.2852 37.7629 60.2981C37.7218 60.3804 37.6807 60.4575 37.6395 60.5372C37.5932 60.6195 37.5495 60.7044 37.5084 60.7918L37.4493 60.8947C37.3233 61.157 37.1999 61.4064 37.0688 61.6867L36.9248 62.0132V62.0184L36.858 62.1598C36.8528 62.1727 36.8477 62.183 36.8451 62.1958C36.8168 62.2601 36.7911 62.3218 36.7628 62.3758C36.7577 62.381 36.7577 62.3887 36.7525 62.3938C36.7217 62.4607 36.6934 62.525 36.6703 62.5841C36.606 62.7255 36.5443 62.8644 36.48 63.0084C36.426 63.1447 36.372 63.281 36.3181 63.4147C36.3129 63.4327 36.3052 63.4455 36.3001 63.4635L36.2821 63.5124C36.2512 63.5844 36.2178 63.6564 36.1869 63.7335L36.1561 63.8184C36.151 63.8415 36.1381 63.8647 36.1278 63.8852C36.0995 63.9675 36.0687 64.0472 36.0378 64.1347L36.0198 64.1887C35.9967 64.2427 35.9787 64.2915 35.9607 64.3481C35.9556 64.3661 35.9478 64.3892 35.9376 64.4124C35.8964 64.5204 35.8553 64.6284 35.8142 64.7338L35.8039 64.7647C35.7756 64.8187 35.755 64.883 35.737 64.9421C35.701 65.0372 35.6702 65.1324 35.6419 65.2327C35.6059 65.333 35.5751 65.4358 35.5416 65.5412C35.5288 65.5772 35.5134 65.6132 35.5005 65.6544C35.4954 65.6827 35.4877 65.7084 35.4774 65.7367C35.4311 65.8601 35.3925 65.981 35.3591 66.0941C35.3 66.2715 35.246 66.4464 35.1971 66.6238L35.174 66.7267C35.1689 66.7395 35.1637 66.7575 35.1611 66.773C35.1611 66.7781 35.1611 66.7832 35.156 66.7832C35.1457 66.8193 35.138 66.8604 35.1277 66.8964C35.1149 66.9324 35.1046 66.9632 35.0969 67.0044V67.0095L33.5003 65.9141L30.5515 62.3527L25.2939 57.1275L28.8804 56.693L33.0658 56.045L39.0741 55.6772L40.6269 55.7467Z" fill="#D8C879"/>
<path d="M40.6321 55.7466C40.6141 55.7697 40.5961 55.7929 40.5781 55.8135C40.5961 55.7903 40.609 55.7672 40.627 55.7466H40.6321Z" fill="#D8C879"/>
<path d="M37.6444 60.5374C37.4002 61.0182 37.1611 61.5145 36.9297 62.0133L37.0737 61.6868C37.2048 61.4065 37.3282 61.1571 37.4542 60.8948L37.5133 60.7919C37.5544 60.7045 37.6007 60.6196 37.6444 60.5374Z" fill="#D8C879"/>
<path d="M38.7706 58.5237C38.7654 58.5288 38.7654 58.5365 38.7603 58.5417C38.696 58.6445 38.6395 58.7448 38.5752 58.8451L38.7706 58.5237Z" fill="#D8C879"/>
<path d="M39.3291 57.624C39.3651 57.5751 39.396 57.5237 39.4294 57.4749C39.3986 57.5289 39.3626 57.5829 39.3266 57.6369C39.2957 57.6831 39.2623 57.732 39.2314 57.7809C39.2649 57.7294 39.2983 57.678 39.3291 57.624Z" fill="#D8C879"/>
<path d="M35.4879 65.7366C35.3851 66.0631 35.2848 66.3871 35.1846 66.7266L35.2077 66.6237C35.2566 66.4463 35.3106 66.2714 35.3697 66.094C35.4031 65.9809 35.4417 65.8574 35.4879 65.7366Z" fill="#D8C879"/>
<path d="M35.9451 64.415C35.8089 64.7853 35.6777 65.1582 35.5518 65.5413C35.5826 65.4385 35.616 65.333 35.652 65.2328C35.6803 65.1325 35.7112 65.0373 35.7472 64.9422C35.7652 64.883 35.7883 64.8213 35.814 64.7648L35.8243 64.7339C35.8628 64.6336 35.904 64.523 35.9451 64.415Z" fill="#D8C879"/>
<path d="M36.2871 63.5149L36.228 63.664C36.2048 63.718 36.1868 63.7669 36.1611 63.8234L36.192 63.7386C36.2254 63.6589 36.2563 63.5869 36.2871 63.5149Z" fill="#D8C879"/>
<path d="M75.8817 108.492C74.9047 108.615 73.8789 108.741 73.357 108.801C72.7066 108.883 71.9919 108.963 71.218 109.055L69.2821 109.281C69.1561 109.294 69.0276 109.299 68.9119 109.299L68.8476 109.305C68.6137 109.328 68.3823 109.335 68.138 109.341C67.7755 109.353 67.4053 109.364 67.0351 109.364C62.9062 109.364 58.8802 108.559 55.0649 106.97C54.052 106.548 53.0467 106.059 52.0698 105.527C52.0466 105.514 52.0287 105.499 52.0055 105.491C51.6764 105.311 51.3551 105.123 51.0286 104.925C51.0234 104.92 51.0183 104.92 51.0157 104.915C50.6584 104.707 50.301 104.481 49.9925 104.283C49.7971 104.151 49.5991 104.02 49.4089 103.884C49.2958 103.807 49.1775 103.73 49.0644 103.653C49.0644 103.653 49.0644 103.653 49.0592 103.647L49.049 103.637L49.031 103.624L49.0001 103.601C48.9178 103.542 48.8407 103.488 48.761 103.429C48.5168 103.251 48.2725 103.077 48.0232 102.881C47.874 102.773 47.7326 102.665 47.5887 102.547C47.5475 102.516 47.5038 102.475 47.4576 102.444C47.3316 102.341 47.2082 102.241 47.0771 102.133C46.9948 102.069 46.9177 102.002 46.8431 101.937C46.6837 101.806 46.5397 101.68 46.4009 101.557C46.3341 101.498 46.2698 101.439 46.2055 101.385C46.1927 101.374 46.1772 101.361 46.1644 101.349C46.1592 101.343 46.1541 101.338 46.1515 101.336C46.0024 101.205 45.8584 101.068 45.7119 100.937C45.7068 100.937 45.7016 100.932 45.699 100.927C45.5911 100.827 45.4831 100.724 45.3725 100.616C45.3443 100.587 45.3134 100.557 45.2877 100.533C45.2826 100.523 45.2826 100.523 45.2774 100.521C45.2491 100.497 45.2234 100.472 45.2003 100.449C45.1823 100.436 45.1694 100.42 45.1514 100.402C44.9535 100.204 44.7478 100.004 44.555 99.8006L44.357 99.6026L44.3519 99.5974C44.2516 99.4946 44.1539 99.3891 44.0537 99.2811C44.0305 99.2529 44.0125 99.2349 43.9894 99.2091L43.8171 99.024C43.8068 99.0137 43.8043 99.0111 43.7991 99.006C43.74 98.9417 43.686 98.88 43.6372 98.8286C43.6372 98.8286 43.632 98.8234 43.6269 98.8183V98.8131L43.5009 98.6717C43.4289 98.5946 43.3595 98.5174 43.2849 98.4274C43.2747 98.4146 43.2669 98.4043 43.2567 98.3966C43.2387 98.3786 43.2207 98.3503 43.2027 98.3323C43.1256 98.2423 43.0484 98.1523 42.9687 98.0571C42.9584 98.0443 42.9456 98.0263 42.9327 98.0109C42.9045 97.9749 42.8787 97.944 42.8427 97.908C42.7296 97.7769 42.6216 97.6406 42.5162 97.5043L42.3388 97.2883C42.326 97.2703 42.3106 97.2574 42.2977 97.2394C42.2617 97.1983 42.2257 97.1546 42.1974 97.1211L42.1332 97.0363C42.1152 97.0131 42.0972 96.99 42.0792 96.9643C42.074 96.9591 42.074 96.9591 42.0689 96.954L42.0638 96.9437L42.0329 96.9026C41.8529 96.6711 41.6755 96.4371 41.5084 96.2109C41.5084 96.2057 41.5033 96.2057 41.5033 96.2006L41.4185 96.0823L41.4056 96.0643C40.7577 95.154 40.1613 94.2283 39.5957 93.2357H39.5905V93.2306L39.5494 93.1586L39.5031 93.0763C39.3412 92.7857 39.1766 92.4926 39.0198 92.1891C39.0095 92.1763 39.0018 92.1583 38.9967 92.1429C38.8424 91.8574 38.6933 91.5643 38.5442 91.2609L38.521 91.212C38.3616 90.8957 38.2099 90.5614 38.0505 90.204C37.9246 89.9366 37.8166 89.6691 37.7035 89.394C37.7035 89.3889 37.6983 89.3837 37.6983 89.3837C37.6803 89.3374 37.6623 89.2937 37.6392 89.2526L37.6263 89.2166L37.6135 89.1857C37.5544 89.0494 37.4952 88.9003 37.4464 88.7563L37.4284 88.7023L37.4181 88.6791C37.4001 88.6329 37.3873 88.584 37.3641 88.5377C37.359 88.5249 37.3538 88.5094 37.3513 88.5017C37.3333 88.4554 37.3153 88.4169 37.2973 88.3706C37.269 88.3037 37.2484 88.2446 37.2304 88.1854C37.2176 88.1443 37.1996 88.1031 37.1893 88.0646L37.1713 88.0183C37.0942 87.8151 37.017 87.594 36.9373 87.3574C36.9322 87.3471 36.9271 87.3394 36.9271 87.3291C36.9039 87.2623 36.8808 87.1877 36.8602 87.1209C36.8294 87.0206 36.7934 86.9229 36.7599 86.8174C36.7291 86.7223 36.7008 86.6271 36.6751 86.532C36.6263 86.3726 36.5723 86.2209 36.5209 86.0563C36.4746 85.8943 36.4257 85.7271 36.3795 85.5549C36.3692 85.5137 36.3563 85.4726 36.3486 85.4289C36.3023 85.2746 36.2638 85.1203 36.2226 84.9686C36.2175 84.9634 36.2175 84.9583 36.2175 84.9506L36.0272 84.1869C36.017 84.156 36.0144 84.1277 36.0041 84.0969C36.0041 84.0866 35.999 84.0789 35.999 84.0686C35.9398 83.8114 35.8807 83.5389 35.8267 83.2586C35.8216 83.2303 35.8164 83.2097 35.8138 83.1814L35.801 83.1146C35.7367 82.842 35.6879 82.572 35.6416 82.3046C35.6313 82.2557 35.6287 82.2094 35.6185 82.1606C35.6133 82.1477 35.6133 82.1323 35.6082 82.1194C35.6082 82.0963 35.603 82.0706 35.5979 82.0526C35.5928 82.0346 35.5927 82.0217 35.5876 82.0037C35.5876 81.9857 35.5876 81.9677 35.5825 81.9497C35.5696 81.8777 35.5593 81.8057 35.5465 81.7337L35.5336 81.6514C35.5285 81.6051 35.5208 81.5614 35.5156 81.5151C35.5053 81.4663 35.4976 81.4149 35.4925 81.366C35.4822 81.3249 35.4796 81.2811 35.4745 81.2349C35.4693 81.2066 35.4642 81.186 35.4616 81.1577C35.4616 81.1397 35.4565 81.1217 35.4565 81.1037C35.4513 81.0754 35.4462 81.0497 35.4436 81.0214C35.4385 80.9931 35.4385 80.9674 35.4334 80.9391C35.4282 80.898 35.4231 80.8569 35.4205 80.8157C35.4076 80.7334 35.3974 80.6537 35.3896 80.5663C35.3845 80.5431 35.3845 80.52 35.3794 80.4943C35.3742 80.4531 35.3691 80.4094 35.3665 80.3631C35.3614 80.3451 35.3614 80.322 35.3562 80.2989C35.3562 80.286 35.3511 80.2706 35.3511 80.2577C35.3459 80.2294 35.3408 80.2037 35.3408 80.1754C35.3357 80.1471 35.3357 80.1214 35.3305 80.0931V80.088L35.3254 80.0417C35.3125 79.9157 35.3022 79.7923 35.2894 79.6714C35.2791 79.5686 35.2714 79.4631 35.2611 79.3629C35.2508 79.2986 35.2482 79.2317 35.2431 79.1726L35.238 79.1057C35.2251 78.9797 35.22 78.8486 35.2148 78.7174C35.2148 78.6814 35.2097 78.6506 35.2045 78.6171C35.2045 78.5991 35.2045 78.5863 35.1994 78.5683V78.5014C35.1994 78.4963 35.1994 78.4911 35.1943 78.4886C35.1943 78.4834 35.1943 78.4783 35.1943 78.4783V78.4191L35.1583 77.7711C35.1531 77.7069 35.1531 77.6477 35.1531 77.586C35.1531 77.5269 35.1531 77.46 35.148 77.388V77.3649C35.1377 77.0846 35.1377 76.7914 35.1377 76.5086C35.1377 75.9377 35.1557 75.3591 35.1865 74.7754C35.1917 74.6571 35.1994 74.5363 35.2097 74.418C35.2097 74.4 35.2097 74.3871 35.2148 74.3691C35.2148 74.3409 35.2148 74.31 35.22 74.2843C35.22 74.2663 35.2251 74.2534 35.2251 74.2354C35.2302 74.1454 35.2354 74.0503 35.2431 73.9603C35.2662 73.6491 35.2971 73.3354 35.3279 73.0243C35.3999 72.3146 35.4899 71.6049 35.6082 70.89L35.6262 70.7871C35.7444 70.1083 35.8755 69.4397 36.0247 68.7866L36.1506 68.2697C36.2046 68.0537 36.2586 67.848 36.3229 67.6037C36.3409 67.5266 36.3692 67.4546 36.3897 67.3826L36.4437 67.1846C36.5517 66.7989 36.67 66.4234 36.7831 66.066C36.9245 65.6366 37.0736 65.22 37.2253 64.7957L37.2433 64.7494C37.2484 64.7263 37.2561 64.7031 37.2664 64.6774L37.2973 64.5951C37.3564 64.446 37.4104 64.302 37.4695 64.1554L37.5467 63.9574C37.6546 63.6823 37.7678 63.4097 37.904 63.1166C37.9529 62.9803 38.0171 62.8491 38.0763 62.718L38.1431 62.574C38.4002 62.0134 38.6727 61.4554 38.9709 60.8717C38.9812 60.8486 38.9941 60.8306 39.0069 60.8074C39.0249 60.7714 39.0481 60.7354 39.0558 60.7071C39.1458 60.5349 39.2357 60.3677 39.318 60.2263C39.3592 60.162 39.39 60.1029 39.426 60.0411C39.444 60.0051 39.462 59.9743 39.4903 59.928C39.6214 59.6966 39.7525 59.4754 39.9119 59.2183C39.9427 59.1591 39.9787 59.1 40.0147 59.0409L40.043 58.9946C40.3181 58.5471 40.5726 58.1563 40.8066 57.8091C40.8786 57.7011 40.9505 57.5957 41.0225 57.4877C41.0817 57.4029 41.1357 57.3154 41.2076 57.2126L41.2565 57.1457C41.3696 56.9837 41.4879 56.8191 41.6241 56.6443C41.8787 56.2869 42.1435 55.9474 42.4648 55.554L42.8273 55.1246C47.365 49.6809 53.5892 45.8726 60.3456 44.394C60.3867 44.3837 60.4279 44.3709 60.4638 44.3631C62.6388 43.8977 64.837 43.6611 67.0094 43.6611C67.8655 43.6611 68.7474 43.6329 69.606 43.6071C69.9685 43.5969 70.3336 43.584 70.7013 43.5763C71.7013 43.5531 72.8763 43.5403 74.0075 43.6071C74.5679 43.638 75.0924 43.692 75.5963 43.7691C63.1479 49.1126 54.5224 62.4506 54.5224 76.5111C54.5224 83.4103 56.5046 90.0471 60.2505 95.7068C60.4099 96.0231 60.6078 96.3137 60.8572 96.5889V96.594C64.3254 101.505 69.9248 105.908 75.8817 108.492Z" fill="#D8C879"/>
<path d="M35.3745 80.3681C35.3797 80.4144 35.3848 80.4581 35.3874 80.4993C35.3823 80.4401 35.3745 80.381 35.3643 80.3193V80.3064C35.3694 80.327 35.3694 80.3501 35.3745 80.3681Z" fill="#D8C879"/>
<path d="M41.5093 96.2028C41.5093 96.2079 41.5144 96.2079 41.5144 96.2131L41.5042 96.2028C41.4759 96.1616 41.4502 96.1256 41.4219 96.0845L41.5093 96.2028Z" fill="#D8C879"/>
<path d="M45.2909 100.533C45.2626 100.505 45.2318 100.479 45.2061 100.448C45.2292 100.471 45.2549 100.497 45.2832 100.52C45.2857 100.525 45.2857 100.525 45.2909 100.533Z" fill="#D8C879"/>
<path d="M41.5144 96.2131L41.5042 96.2028C41.4759 96.1616 41.4502 96.1256 41.4219 96.0845L41.5067 96.2028C41.5093 96.2079 41.5144 96.2079 41.5144 96.2131Z" fill="#D8C879"/>
<path d="M49.0546 103.637L49.0057 103.606C48.9234 103.547 48.8437 103.488 48.7666 103.428C48.8489 103.488 48.926 103.542 49.0057 103.601L49.0366 103.624L49.0546 103.637Z" fill="#D8C879"/>
<path d="M44.558 99.8003C44.7533 100.003 44.9564 100.204 45.1544 100.402C44.9513 100.212 44.7559 100.014 44.5528 99.8106L44.3574 99.6023L44.558 99.8003Z" fill="#D8C879"/>
<path d="M45.2806 100.52C45.2857 100.525 45.2857 100.525 45.2909 100.533C45.2626 100.505 45.2318 100.479 45.2061 100.448C45.2266 100.469 45.2549 100.497 45.2806 100.52Z" fill="#D8C879"/>
<path d="M36.7625 86.8251C36.7343 86.7351 36.7034 86.64 36.6726 86.5397C36.6237 86.3802 36.5723 86.2285 36.5234 86.064C36.5723 86.226 36.6263 86.3802 36.6777 86.5397C36.7034 86.6348 36.7317 86.73 36.7625 86.8251Z" fill="#D8C879"/>
<path d="M36.0043 84.0734C35.9631 83.9114 35.9272 83.7468 35.8963 83.59C35.8732 83.482 35.85 83.374 35.832 83.2634C35.886 83.5437 35.9452 83.8163 36.0043 84.0734Z" fill="#D8C879"/>
<path d="M35.3027 79.6816C35.3156 79.8051 35.3259 79.9259 35.3387 80.0519L35.3284 80.0031C35.3207 79.8925 35.3104 79.7845 35.3027 79.6816Z" fill="#D8C879"/>
<path d="M35.3745 80.3681C35.3797 80.4144 35.3848 80.4581 35.3874 80.4993C35.3823 80.4401 35.3745 80.381 35.3643 80.3193V80.3064C35.3694 80.327 35.3694 80.3501 35.3745 80.3681Z" fill="#D8C879"/>
<path d="M35.4697 81.1599C35.4749 81.1882 35.48 81.2088 35.4826 81.2371C35.4774 81.2319 35.4774 81.2268 35.4774 81.2242C35.4749 81.2062 35.4749 81.1831 35.4697 81.1599Z" fill="#D8C879"/>
<path d="M35.5236 81.5176C35.5287 81.5639 35.5364 81.6076 35.5415 81.6539C35.5364 81.6179 35.5287 81.5819 35.5236 81.5459C35.5107 81.4456 35.4953 81.3427 35.4824 81.2373C35.4876 81.2836 35.4927 81.3273 35.5004 81.3684C35.5056 81.4173 35.5158 81.4687 35.5236 81.5176Z" fill="#D8C879"/>
<path d="M35.596 82.0061C35.596 81.9932 35.5908 81.9752 35.5857 81.9521C35.5728 81.8852 35.5626 81.8209 35.5548 81.7541C35.5497 81.7181 35.5446 81.6872 35.542 81.6538L35.5548 81.7361C35.5677 81.8081 35.578 81.8801 35.5908 81.9521C35.596 81.9701 35.596 81.9881 35.596 82.0061Z" fill="#D8C879"/>
<path d="M35.2128 78.4858C35.2076 78.4678 35.2076 78.4498 35.2076 78.4318L35.1768 77.7812L35.2128 78.4293V78.4858Z" fill="#D8C879"/>
<path d="M35.2151 78.509V78.5321C35.21 78.5192 35.21 78.509 35.21 78.4961C35.2151 78.4987 35.2151 78.5038 35.2151 78.509Z" fill="#D8C879"/>
<path d="M35.215 74.6082C35.2202 74.5439 35.2253 74.4848 35.2279 74.4282C35.2176 74.5465 35.2099 74.6674 35.2047 74.7857C35.1739 75.3694 35.1559 75.9479 35.1559 76.5188C35.1559 76.7991 35.1559 77.0922 35.1662 77.3751C35.1533 77.0948 35.1533 76.8042 35.1533 76.5188C35.1533 76.2437 35.1585 75.9659 35.1662 75.6857C35.1662 75.6214 35.1662 75.5597 35.1713 75.4954C35.1765 75.3411 35.1842 75.1868 35.1945 75.0351C35.197 74.8937 35.2073 74.7548 35.215 74.6082Z" fill="#D8C879"/>
<path d="M50.0212 105.905L45.5195 107.18L41.1129 109.574L34.5391 111.058L35.6934 106.841L37.3671 103.064L40.6476 98.5172L41.0409 97.8384C41.0512 97.8512 41.0589 97.8667 41.0718 97.8795L41.1206 97.9438C41.1849 98.0287 41.2466 98.111 41.3006 98.1701L41.4497 98.3552C41.5731 98.5095 41.6939 98.6587 41.8173 98.8078L41.8713 98.867C41.9947 99.0109 42.1156 99.1601 42.2236 99.2887C42.3084 99.389 42.4009 99.4867 42.4909 99.587L42.6272 99.7361C42.6915 99.803 42.748 99.8724 42.8123 99.9392L42.9845 100.124C43.0514 100.202 43.1259 100.284 43.2005 100.358L43.3908 100.567C43.6993 100.883 44.0206 101.21 44.3369 101.503C44.6222 101.788 44.9256 102.068 45.265 102.367C45.522 102.598 45.8665 102.902 46.2368 103.195C46.5478 103.452 46.8744 103.719 47.2009 103.964C47.5351 104.221 47.8744 104.465 48.2138 104.709L48.2806 104.758C48.6072 104.984 48.9311 105.216 49.2576 105.419C49.4916 105.568 49.7538 105.74 50.0212 105.905Z" fill="#D8C879"/>
<path d="M37.6373 92.4718L32.1741 91.3764L23.3172 89.3501L18.8618 87.1592L9.83789 82.9241L14.1622 80.6535L19.6588 78.6889L26.027 74.9732L33.8066 71.7924L34.1331 71.7075C33.912 73.3275 33.7989 74.9424 33.7989 76.5161C33.7989 76.8272 33.7989 77.1487 33.8169 77.4289C33.8169 77.5704 33.8169 77.7041 33.8272 77.8532L33.8503 78.2569V78.3521C33.8503 78.3881 33.8503 78.4472 33.8606 78.5192C33.8709 78.7532 33.8837 78.9847 33.9069 79.2109V79.2418C33.93 79.5401 33.9557 79.8307 33.9891 80.1289L33.9994 80.2318C34.0843 81.0135 34.1665 81.6127 34.2565 82.1552C34.2668 82.2195 34.2745 82.2812 34.2874 82.3507L34.3105 82.5101C34.3593 82.8187 34.4185 83.1169 34.4776 83.3792C34.5419 83.7367 34.619 84.1044 34.7218 84.5158L34.9121 85.2898C34.9712 85.5109 35.0252 85.7244 35.0843 85.9275C35.1743 86.2721 35.2823 86.6141 35.3877 86.9458C35.5728 87.5475 35.7399 88.0412 35.907 88.4835C35.9662 88.6687 36.0382 88.8589 36.141 89.1135C36.1538 89.1547 36.1693 89.1907 36.1821 89.2267C36.2413 89.3938 36.3081 89.5558 36.3621 89.6921C36.3801 89.7409 36.4032 89.7872 36.4264 89.8335L36.4495 89.8927C36.5755 90.1961 36.6989 90.4944 36.83 90.7695C36.9842 91.1269 37.1514 91.4844 37.3236 91.8238L37.3416 91.8649C37.4342 92.0732 37.537 92.2764 37.6373 92.4718Z" fill="#D8C879"/>
<path d="M177.764 35.0697H177.668C177.647 34.4637 177.443 33.9447 177.053 33.5097C176.663 33.0777 176.195 32.8617 175.649 32.8617H175.238V32.5107H177.761V35.0697H177.764ZM177.764 54.4767V57.0327H175.241V56.6817H175.652C176.198 56.6817 176.666 56.4657 177.056 56.0337C177.443 55.6017 177.65 55.0827 177.671 54.4737H177.764V54.4767ZM179.719 32.5107V57.0327H177.671V32.5107H179.719ZM192.896 44.3877V45.4377H179.404V44.3877H192.896ZM179.623 35.0697V32.5137H182.146V32.8647C182.125 32.8647 181.99 32.8647 181.735 32.8647C181.189 32.8647 180.721 33.0807 180.331 33.5127C179.941 33.9447 179.737 34.4637 179.716 35.0727H179.623V35.0697ZM179.623 54.4767H179.716C179.737 55.0857 179.941 55.6047 180.331 56.0367C180.718 56.4687 181.186 56.6847 181.735 56.6847C181.987 56.6847 182.122 56.6847 182.146 56.6847V57.0357H179.623V54.4767ZM192.707 35.0697H192.614C192.614 34.4637 192.413 33.9447 192.014 33.5097C191.615 33.0777 191.141 32.8617 190.595 32.8617C190.343 32.8617 190.205 32.8617 190.184 32.8617V32.5107H192.707V35.0697ZM192.707 54.4767V57.0327H190.184V56.6817C190.205 56.6817 190.34 56.6817 190.595 56.6817C191.141 56.6817 191.615 56.4657 192.014 56.0337C192.413 55.6017 192.614 55.0827 192.614 54.4737H192.707V54.4767ZM194.659 32.5107V57.0327H192.611V32.5107H194.659ZM194.566 35.0697V32.5137H197.089V32.8647H196.678C196.132 32.8647 195.664 33.0807 195.274 33.5127C194.884 33.9447 194.68 34.4637 194.659 35.0727H194.566V35.0697ZM194.566 54.4767H194.659C194.68 55.0857 194.884 55.6047 195.274 56.0367C195.664 56.4687 196.129 56.6847 196.678 56.6847H197.089V57.0357H194.566V54.4767Z" fill="#D8C879"/>
<path d="M202.227 54.4766C201.996 55.1786 202.026 55.7216 202.32 56.1056C202.614 56.4896 202.95 56.6846 203.327 56.6846H203.579V57.0356H197.56V56.6846H197.812C198.252 56.6846 198.705 56.5166 199.167 56.1776C199.629 55.8386 200.028 55.2746 200.367 54.4796H202.227V54.4766ZM208.309 35.5256L208.528 37.9436L201.309 56.9306H199.323L206.795 39.1346C207.026 38.5736 207.221 38.0906 207.377 37.6796C207.536 37.2716 207.677 36.8696 207.803 36.4706C207.929 36.0746 208.001 35.7596 208.022 35.5256H208.309ZM212.029 48.8726V49.9226H203.675V48.8726H212.029ZM208.309 35.5256L216.978 56.8256H214.488L207.773 38.6426L208.309 35.5256ZM213.636 54.4766H216.033C216.348 55.2716 216.738 55.8386 217.2 56.1746C217.662 56.5136 218.103 56.6816 218.522 56.6816H218.774V57.0326H212.314V56.6816H212.566C212.923 56.6816 213.249 56.4896 213.543 56.1026C213.834 55.7216 213.867 55.1786 213.636 54.4766Z" fill="#D8C879"/>
<path d="M220.823 54.8638V57.0358H218.46V56.6848H218.997C219.48 56.6848 219.891 56.5108 220.227 56.1598C220.563 55.8088 220.731 55.3768 220.731 54.8638H220.823ZM220.76 35.4897L222.116 37.4517L222.146 57.0328H220.728V39.8697C220.728 38.6787 220.632 37.2207 220.443 35.4897H220.76ZM220.76 35.4897L238.223 53.7778L238.538 57.5248L221.075 39.1317L220.76 35.4897ZM222.146 54.8638C222.146 55.3768 222.32 55.8088 222.665 56.1598C223.013 56.5108 223.415 56.6848 223.88 56.6848H224.417V57.0358H222.053V54.8638H222.146ZM237.152 38.1867C237.131 37.6737 236.951 37.2417 236.615 36.8907C236.279 36.5397 235.869 36.3657 235.386 36.3657H234.849V36.0147H237.212V38.1867H237.152ZM238.538 36.0147V53.0398C238.538 53.7868 238.559 54.5068 238.601 55.1938C238.643 55.8838 238.718 56.6608 238.82 57.5218H238.535L237.149 55.6648V36.0117H238.538V36.0147ZM238.445 38.1867V36.0147H240.809V36.3657H240.272C239.81 36.3657 239.405 36.5397 239.057 36.8907C238.709 37.2417 238.538 37.6737 238.538 38.1867H238.445Z" fill="#D8C879"/>
<path d="M261.309 40.9016C260.49 39.3266 259.32 38.1146 257.812 37.2806C256.294 36.4376 254.494 36.0176 252.419 36.0176H245.322V37.0706H252.419C254.857 37.0706 256.774 37.9136 258.166 39.6026C259.566 41.3006 260.262 43.6106 260.262 46.5266C260.262 49.4426 259.566 51.7526 258.166 53.4446C256.771 55.1366 254.857 55.9856 252.419 55.9856H245.64L245.697 57.0386H252.416C254.491 57.0386 256.291 56.6096 257.809 55.7546C259.317 54.9056 260.487 53.6996 261.306 52.1336C262.125 50.5646 262.533 48.7016 262.533 46.5296C262.536 44.3486 262.131 42.4766 261.309 40.9016ZM245.7 57.0356H246.144V55.9826H245.643L245.7 57.0356ZM245.322 36.0176V37.0706H246.141V36.0176H245.322ZM244.095 57.0356H244.161V54.7556H244.095V57.0356ZM244.095 38.2946H244.161V36.0146H244.095V38.2946ZM244.095 54.7586C244.074 55.2596 243.9 55.7006 243.582 56.0786C243.255 56.4656 242.764 56.6816 242.257 56.6816H241.888V57.0386H244.158V54.7586H244.095ZM241.891 36.0176V36.3656H242.221C242.689 36.3656 243.153 36.5276 243.492 36.8546C243.876 37.2266 244.077 37.7006 244.098 38.2976H244.164V36.0176H241.891Z" fill="#D8C879"/>
<path d="M246.144 49.7398V55.9858H245.643L245.7 57.0388H244.162V54.7588H244.096V38.2978H244.162V36.0178H245.322V37.0708H246.141V43.2928C246.144 43.7938 246.144 49.3138 246.144 49.7398Z" fill="#D8C879"/>
<path d="M180.76 68.3608H178.271C178.019 67.5898 177.614 67.0348 177.056 66.6958C176.498 66.3568 175.979 66.1888 175.496 66.1888H175.244V65.8378H182.242V66.1888H181.957C181.558 66.1888 181.204 66.3748 180.901 66.7498C180.595 67.1248 180.55 67.6618 180.76 68.3608ZM177.545 66.0508H180.097L185.961 86.9638L185.424 90.7828L177.545 66.0508ZM191.666 65.2798L191.918 68.1178L186.369 86.8948C186.159 87.7138 186 88.4188 185.895 89.0128C185.79 89.6098 185.727 90.1978 185.706 90.7828H185.421L184.854 87.6658L191.378 65.2798H191.666ZM191.666 65.3128L198.286 85.9468L197.593 90.7798L190.595 69.0958L191.666 65.3128ZM204.464 66.0508L198.571 86.8948C198.361 87.7348 198.196 88.4548 198.082 89.0488C197.965 89.6428 197.899 90.2218 197.875 90.7828H197.59L197.212 87.3148L202.698 66.0508H204.464ZM202.101 68.3608C202.269 67.6588 202.215 67.1218 201.942 66.7498C201.669 66.3778 201.321 66.1888 200.901 66.1888H200.616V65.8378H206.825V66.1888H206.573C206.09 66.1888 205.565 66.3568 204.998 66.6958C204.431 67.0348 204.032 67.5898 203.802 68.3608H202.101Z" fill="#D8C879"/>
<path d="M208.343 71.5498H208.28C208.259 71.0128 208.079 70.5688 207.743 70.2178C207.407 69.8668 206.987 69.6928 206.48 69.6928H206.039V69.3418H208.718L208.343 71.5498ZM208.343 88.1188L208.721 90.3598H206.042V90.0088H206.483C206.987 90.0088 207.407 89.8228 207.746 89.4478C208.082 89.0758 208.262 88.6318 208.283 88.1158H208.343V88.1188ZM210.265 69.3418V90.3598H208.247V69.3418H210.265ZM210.169 88.1188H210.262C210.283 88.6318 210.463 89.0758 210.799 89.4508C211.135 89.8258 211.555 90.0118 212.059 90.0118H212.47L212.5 90.3628H209.788L210.169 88.1188ZM213.952 69.3418C214.938 69.3418 215.826 69.4708 216.615 69.7258C217.404 69.9838 218.076 70.3558 218.634 70.8478C219.188 71.3398 219.614 71.9338 219.911 72.6328C220.205 73.3348 220.352 74.1268 220.352 75.0148C220.352 75.9958 220.142 76.9078 219.722 77.7478C219.302 78.5878 218.718 79.2778 217.974 79.8148C217.227 80.3518 216.381 80.6788 215.436 80.7958C215.793 80.9608 216.21 81.3208 216.681 81.8818C217.152 82.4428 217.56 82.9918 217.893 83.5288C218.439 84.3478 218.928 85.0528 219.359 85.6468C219.788 86.2408 220.214 86.8078 220.637 87.3448C221.078 87.8818 221.483 88.3498 221.852 88.7458C222.218 89.1418 222.62 89.4538 223.049 89.6758C223.478 89.8978 223.979 90.0088 224.545 90.0088V90.3598H223.568C222.413 90.3598 221.462 90.1978 220.715 89.8678C219.968 89.5408 219.365 89.1388 218.904 88.6588C218.442 88.1818 218.04 87.7198 217.704 87.2758C217.62 87.1588 217.425 86.8618 217.122 86.3818C216.816 85.9048 216.486 85.3828 216.129 84.8218C215.772 84.2608 215.445 83.7538 215.151 83.2978C214.857 82.8418 214.677 82.5688 214.614 82.4728C214.194 81.8668 213.712 81.3238 213.166 80.8438C212.62 80.3668 212.041 80.1268 211.432 80.1268V79.7758C212.104 79.7998 212.704 79.7998 213.229 79.7758C213.817 79.7518 214.404 79.7008 214.995 79.6168C215.583 79.5358 216.135 79.2838 216.651 78.8638C217.167 78.4438 217.569 77.7418 217.866 76.7608C217.95 76.5028 218.013 76.1998 218.055 75.8488C218.097 75.4978 218.106 75.1378 218.085 74.7628C218.064 74.1088 217.953 73.5238 217.755 73.0108C217.554 72.4978 217.272 72.0538 216.903 71.6788C216.534 71.3038 216.099 71.0128 215.595 70.8028C215.091 70.5928 214.524 70.4758 213.892 70.4518C212.905 70.4068 212.044 70.3948 211.306 70.4158C210.568 70.4368 210.202 70.4398 210.202 70.4158C210.202 70.3918 210.175 70.2928 210.124 70.1188C210.073 69.9448 209.992 69.6808 209.887 69.3298H213.952V69.3418Z" fill="#D8C879"/>
<path d="M227.224 71.5858H227.128C227.107 71.0488 226.891 70.5988 226.484 70.2358C226.073 69.8728 225.575 69.6928 224.987 69.6928C224.966 69.6928 224.819 69.6928 224.546 69.6928V69.3418H227.224V71.5858ZM227.224 88.1188V90.3598H224.546V90.0088H224.987C225.575 90.0088 226.076 89.8228 226.484 89.4478C226.894 89.0758 227.107 88.6318 227.128 88.1158H227.224V88.1188ZM229.114 69.3418V90.3598H227.128V69.3418H229.114ZM229.021 71.5858V69.3448H231.699L231.666 69.6958H231.256C230.668 69.6958 230.167 69.8758 229.759 70.2388C229.348 70.6018 229.135 71.0518 229.114 71.5888H229.021V71.5858ZM229.021 88.1188H229.114C229.135 88.6318 229.351 89.0758 229.759 89.4508C230.17 89.8258 230.668 90.0118 231.256 90.0118H231.666L231.699 90.3628H229.021V88.1188Z" fill="#D8C879"/>
<path d="M232.614 68.7478C232.803 68.8168 233.091 68.9008 233.481 68.9938C233.868 69.0868 234.306 69.1648 234.789 69.2218C235.272 69.2788 235.725 69.3088 236.145 69.3088L232.614 69.6598V68.7478ZM249.918 69.3088V70.3588H232.611V69.3088H249.918ZM234.537 70.2898V70.3588C234.054 70.3828 233.67 70.5628 233.385 70.9018C233.1 71.2408 232.959 71.6548 232.959 72.1438V72.7048H232.611V70.2868H234.537V70.2898ZM240.305 88.1188V90.3598H238.004V90.0088C238.025 90.0088 238.151 90.0088 238.382 90.0088C238.886 90.0088 239.318 89.8228 239.675 89.4478C240.032 89.0758 240.221 88.6318 240.242 88.1158H240.305V88.1188ZM242.29 69.4468V90.3598H240.242V69.4468H242.29ZM242.197 88.1188H242.293C242.314 88.6318 242.503 89.0758 242.86 89.4508C243.217 89.8258 243.649 90.0118 244.153 90.0118H244.501V90.3628H242.2V88.1188H242.197ZM249.918 68.7478V69.6598L246.388 69.3088C246.808 69.3088 247.254 69.2788 247.728 69.2218C248.202 69.1648 248.637 69.0868 249.036 68.9938C249.435 68.9008 249.729 68.8168 249.918 68.7478ZM249.918 70.2898V72.7078H249.57V72.1468C249.57 71.6578 249.429 71.2438 249.144 70.9048C248.859 70.5658 248.475 70.3858 247.995 70.3618V70.2928H249.918V70.2898Z" fill="#D8C879"/>
<path d="M245.266 73.4429C245.455 73.5119 245.743 73.5959 246.133 73.6889C246.522 73.7819 246.957 73.8599 247.44 73.9169C247.923 73.9739 248.376 74.0039 248.796 74.0039L245.266 74.3549V73.4429ZM262.572 74.0009V75.0509H245.266V74.0009H262.572ZM247.188 74.9819V75.0509C246.705 75.0749 246.321 75.2549 246.037 75.5939C245.752 75.9329 245.611 76.3469 245.611 76.8359V77.3999H245.263V74.9819H247.188ZM252.956 88.1189V90.3599H250.656V90.0089C250.677 90.0089 250.803 90.0089 251.034 90.0089C251.537 90.0089 251.969 89.8229 252.326 89.4479C252.683 89.0759 252.872 88.6319 252.893 88.1159H252.956V88.1189ZM254.942 74.8109V90.3629H252.893V74.8109H254.942ZM254.849 88.1189H254.945C254.966 88.6319 255.155 89.0759 255.512 89.4509C255.869 89.8259 256.301 90.0119 256.804 90.0119H257.152V90.3629H254.852V88.1189H254.849ZM262.572 73.4429V74.3549L259.042 74.0039C259.462 74.0039 259.909 73.9739 260.383 73.9169C260.857 73.8599 261.292 73.7819 261.69 73.6889C262.086 73.5929 262.38 73.5119 262.572 73.4429ZM262.572 74.9819V77.3999H262.224V76.8389C262.224 76.3499 262.083 75.9359 261.798 75.5969C261.514 75.2579 261.13 75.0779 260.65 75.0539V74.9849H262.572V74.9819Z" fill="#D8C879"/>
<path d="M265.329 71.5497H265.266C265.245 71.0127 265.065 70.5687 264.729 70.2177C264.393 69.8667 263.961 69.6927 263.436 69.6927H262.995V69.3417H265.737L265.329 71.5497ZM265.329 88.1187L265.74 90.3597H262.998V90.0087H263.439C263.964 90.0087 264.396 89.8227 264.732 89.4477C265.068 89.0757 265.248 88.6317 265.269 88.1157H265.329V88.1187ZM267.284 69.3417V90.3597H265.266V69.3417H267.284ZM275.734 69.3417V70.4277H267.221V69.3417H275.734ZM274.282 79.3257V80.3757H267.221V79.3257H274.282ZM275.764 89.2767L275.701 90.3627H267.221V89.2767H275.764ZM277.53 85.3527L275.797 90.3627H271.007L272.077 89.2767C273.127 89.2767 273.973 89.1087 274.615 88.7697C275.257 88.4307 275.776 87.9627 276.174 87.3687C276.573 86.7717 276.921 86.1027 277.215 85.3557H277.53V85.3527ZM275.734 68.7837V69.6957L272.14 69.3447C272.791 69.3447 273.484 69.2817 274.219 69.1527C274.954 69.0207 275.458 68.9007 275.734 68.7837ZM274.282 77.3997V79.3977H272.644V79.3287C273.085 79.3287 273.412 79.1847 273.622 78.8907C273.832 78.5997 273.937 78.2547 273.937 77.8587V77.3997H274.282ZM274.282 80.3067V82.3047H273.934V81.8487C273.934 81.4527 273.829 81.1077 273.619 80.8167C273.409 80.5257 273.082 80.3787 272.641 80.3787V80.3097H274.282V80.3067ZM275.734 70.3227V72.7407H275.386V72.2157C275.386 71.7237 275.245 71.3037 274.96 70.9557C274.675 70.6047 274.291 70.4307 273.808 70.4307V70.3257H275.734V70.3227Z" fill="#D8C879"/>
<path d="M280.679 88.1907V90.3627H278.315V90.0117H278.852C279.335 90.0117 279.746 89.8377 280.082 89.4867C280.418 89.1357 280.586 88.7037 280.586 88.1907H280.679ZM280.616 68.8167L281.972 70.7787L282.002 90.3597H280.583V73.1937C280.583 72.0027 280.49 70.5447 280.298 68.8137H280.616V68.8167ZM280.616 68.8167L298.079 87.1047L298.393 90.8517L280.931 72.4587L280.616 68.8167ZM282.005 88.1907C282.005 88.7037 282.179 89.1357 282.524 89.4867C282.872 89.8377 283.273 90.0117 283.735 90.0117H284.272V90.3627H281.909V88.1907H282.005ZM297.008 71.5137C296.987 71.0007 296.807 70.5687 296.471 70.2177C296.135 69.8667 295.724 69.6927 295.241 69.6927H294.704V69.3417H297.068V71.5137H297.008ZM298.396 69.3417V86.3667C298.396 87.1137 298.417 87.8337 298.459 88.5207C298.501 89.2107 298.573 89.9877 298.678 90.8487H298.393L297.008 88.9917V69.3387H298.396V69.3417ZM298.3 71.5137V69.3417H300.664V69.6927H300.127C299.665 69.6927 299.26 69.8667 298.912 70.2177C298.564 70.5687 298.393 71.0007 298.393 71.5137H298.3Z" fill="#D8C879"/>
<path d="M195.733 112.767L195.355 118.266C194.809 119.271 194.119 120.165 193.291 120.945C192.461 121.728 191.483 122.346 190.361 122.802C189.236 123.258 187.95 123.486 186.501 123.486C184.314 123.462 182.371 122.925 180.67 121.875C178.969 120.825 177.638 119.346 176.684 117.444C175.727 115.542 175.25 113.292 175.25 110.7C175.25 108.156 175.724 105.93 176.669 104.025C177.614 102.123 178.942 100.638 180.658 99.5757C182.371 98.5137 184.383 97.9827 186.696 97.9827C188.249 97.9827 189.653 98.2107 190.904 98.6667C192.155 99.1227 193.24 99.6897 194.167 100.365L194.797 105.306H194.512C194.05 103.251 193.105 101.691 191.675 100.629C190.244 99.5667 188.585 99.0357 186.693 99.0357C184.842 99.0357 183.24 99.5217 181.885 100.491C180.529 101.46 179.479 102.816 178.732 104.556C177.985 106.296 177.614 108.333 177.614 110.67C177.614 113.007 177.985 115.05 178.732 116.802C179.479 118.554 180.517 119.919 181.852 120.9C183.186 121.881 184.737 122.394 186.501 122.442C187.994 122.442 189.374 122.133 190.646 121.515C191.918 120.897 192.983 119.88 193.846 118.467C194.707 117.054 195.253 115.158 195.484 112.773H195.733V112.767Z" fill="#D8C879"/>
<path d="M200.082 104.22H199.989C199.968 103.683 199.785 103.233 199.437 102.87C199.089 102.507 198.663 102.327 198.159 102.327H197.781V101.976H200.082V104.22ZM200.082 120.756V122.997H197.781V122.646H198.159C198.663 122.646 199.089 122.46 199.437 122.085C199.785 121.713 199.968 121.269 199.989 120.753H200.082V120.756ZM202.004 101.979V122.997H199.986V101.979H202.004ZM213.951 112.104V113.154H201.656V112.104H213.951ZM201.908 104.22V101.979H204.209V102.33H203.831C203.327 102.33 202.895 102.51 202.538 102.873C202.181 103.236 202.001 103.686 202.001 104.223H201.908V104.22ZM201.908 120.756H202.004C202.004 121.269 202.181 121.713 202.541 122.088C202.898 122.463 203.33 122.649 203.834 122.649H204.212V123H201.911V120.756H201.908ZM213.732 104.22H213.636C213.615 103.683 213.432 103.233 213.084 102.87C212.736 102.507 212.31 102.327 211.806 102.327H211.429V101.976H213.729V104.22H213.732ZM213.732 120.756V122.997H211.432V122.646H211.809C212.313 122.646 212.739 122.46 213.087 122.085C213.435 121.713 213.618 121.269 213.639 120.753H213.732V120.756ZM215.655 101.979V122.997H213.636V101.979H215.655ZM215.559 104.22V101.979H217.859V102.33H217.481C216.977 102.33 216.552 102.51 216.204 102.873C215.856 103.236 215.673 103.686 215.652 104.223H215.559V104.22ZM215.559 120.756H215.655C215.676 121.269 215.859 121.713 216.207 122.088C216.555 122.463 216.98 122.649 217.484 122.649H217.862V123H215.562V120.756H215.559Z" fill="#D8C879"/>
<path d="M222.335 104.184H222.272C222.251 103.647 222.071 103.203 221.735 102.852C221.399 102.501 220.979 102.327 220.475 102.327H220.034V101.976H222.713L222.335 104.184ZM222.335 120.756L222.713 122.997H220.034V122.646H220.475C220.979 122.646 221.399 122.46 221.735 122.085C222.071 121.713 222.251 121.269 222.272 120.753H222.335V120.756ZM224.26 101.979V122.997H222.242V101.979H224.26ZM224.164 120.756H224.26C224.281 121.269 224.458 121.713 224.797 122.088C225.133 122.463 225.553 122.649 226.057 122.649H226.468L226.501 123H223.789L224.164 120.756ZM227.947 101.979C228.933 101.979 229.821 102.108 230.61 102.363C231.399 102.621 232.071 102.993 232.626 103.485C233.184 103.974 233.607 104.571 233.903 105.27C234.197 105.972 234.344 106.764 234.344 107.652C234.344 108.633 234.134 109.545 233.714 110.385C233.295 111.225 232.71 111.915 231.966 112.452C231.219 112.989 230.373 113.316 229.428 113.433C229.785 113.598 230.199 113.958 230.673 114.519C231.147 115.08 231.549 115.629 231.885 116.166C232.431 116.985 232.92 117.69 233.352 118.284C233.783 118.878 234.206 119.445 234.629 119.982C235.07 120.519 235.475 120.987 235.841 121.383C236.207 121.779 236.609 122.091 237.041 122.313C237.47 122.535 237.971 122.646 238.538 122.646V122.997H237.56C236.402 122.997 235.451 122.835 234.707 122.505C233.96 122.178 233.358 121.776 232.896 121.296C232.434 120.819 232.035 120.357 231.699 119.913C231.615 119.796 231.42 119.499 231.117 119.019C230.811 118.542 230.481 118.02 230.124 117.459C229.767 116.898 229.44 116.391 229.146 115.935C228.852 115.479 228.672 115.206 228.609 115.11C228.19 114.504 227.707 113.961 227.161 113.481C226.615 113.004 226.036 112.764 225.427 112.764V112.413C226.099 112.437 226.699 112.437 227.224 112.413C227.812 112.389 228.4 112.338 228.99 112.254C229.578 112.173 230.13 111.921 230.646 111.501C231.162 111.081 231.564 110.379 231.861 109.398C231.945 109.14 232.008 108.837 232.05 108.486C232.092 108.135 232.101 107.775 232.083 107.4C232.062 106.746 231.951 106.161 231.753 105.648C231.552 105.135 231.27 104.691 230.901 104.316C230.532 103.941 230.097 103.65 229.593 103.44C229.089 103.23 228.523 103.113 227.89 103.089C226.903 103.044 226.039 103.032 225.304 103.053C224.569 103.077 224.2 103.077 224.2 103.053C224.2 103.029 224.173 102.93 224.122 102.756C224.068 102.582 223.99 102.318 223.885 101.967H227.947V101.979Z" fill="#D8C879"/>
<path d="M257.733 108.018C257.191 106.674 256.426 105.513 255.448 104.535C255.28 104.367 255.106 104.202 254.926 104.049L253.597 105.057C254.191 105.696 254.701 106.437 255.121 107.286C255.853 108.768 256.225 110.502 256.225 112.491C256.225 114.45 255.856 116.178 255.121 117.672C254.38 119.166 253.387 120.336 252.125 121.179C250.862 122.013 249.455 122.436 247.901 122.436C246.732 122.436 245.646 122.19 244.635 121.71L244.404 121.884L243.489 122.58C243.582 122.625 243.678 122.667 243.771 122.703C245.055 123.225 246.429 123.486 247.901 123.486C249.374 123.486 250.754 123.225 252.047 122.703C253.339 122.172 254.479 121.419 255.451 120.438C256.432 119.457 257.194 118.296 257.736 116.955C258.288 115.611 258.555 114.123 258.555 112.491C258.552 110.856 258.285 109.362 257.733 108.018ZM240.715 117.672C239.974 116.178 239.611 114.45 239.611 112.491C239.611 110.502 239.974 108.768 240.715 107.286C241.447 105.804 242.448 104.643 243.705 103.803C244.968 102.96 246.369 102.54 247.898 102.54C249.452 102.54 250.859 102.96 252.122 103.803C252.296 103.92 252.463 104.043 252.628 104.172L253.861 103.236C253.294 102.858 252.685 102.54 252.041 102.279C250.748 101.748 249.371 101.487 247.895 101.487C246.423 101.487 245.052 101.748 243.765 102.279C242.481 102.801 241.357 103.557 240.376 104.535C239.395 105.516 238.633 106.677 238.09 108.018C237.547 109.362 237.271 110.856 237.271 112.488C237.271 114.12 237.547 115.608 238.09 116.952C238.633 118.296 239.398 119.457 240.376 120.435C240.943 121.002 241.558 121.494 242.227 121.908L243.432 120.993L243.438 120.987C242.313 120.168 241.399 119.067 240.715 117.672Z" fill="#D8C879"/>
<path d="M262.149 120.825V122.997H259.785V122.646H260.322C260.805 122.646 261.216 122.472 261.552 122.121C261.888 121.77 262.056 121.338 262.056 120.825H262.149ZM262.086 101.454L263.441 103.416L263.471 122.997H262.053V105.831C262.053 104.64 261.96 103.182 261.768 101.451H262.086V101.454ZM262.086 101.454L279.548 119.742L279.863 123.489L262.401 105.096L262.086 101.454ZM263.471 120.825C263.471 121.338 263.645 121.77 263.99 122.121C264.338 122.472 264.74 122.646 265.202 122.646H265.739V122.997H263.375V120.825H263.471ZM278.477 104.151C278.456 103.638 278.276 103.206 277.941 102.855C277.605 102.504 277.194 102.33 276.711 102.33H276.174V101.979H278.537V104.151H278.477ZM279.863 101.979V119.004C279.863 119.751 279.884 120.471 279.926 121.158C279.968 121.848 280.04 122.625 280.145 123.486H279.86L278.474 121.629V101.976H279.863V101.979ZM279.77 104.151V101.979H282.134V102.33H281.597C281.135 102.33 280.73 102.504 280.385 102.855C280.037 103.206 279.866 103.638 279.866 104.151H279.77Z" fill="#D8C879"/>
<path d="M286.39 104.22H286.297C286.276 103.683 286.06 103.233 285.653 102.87C285.242 102.507 284.744 102.327 284.156 102.327C284.135 102.327 283.988 102.327 283.715 102.327V101.976H286.393V104.22H286.39ZM286.39 120.756V122.997H283.712V122.646H284.153C284.741 122.646 285.242 122.46 285.65 122.085C286.06 121.713 286.273 121.269 286.294 120.753H286.39V120.756ZM288.28 101.979V122.997H286.294V101.979H288.28ZM288.187 104.22V101.979H290.865L290.835 102.33H290.425C289.837 102.33 289.336 102.51 288.928 102.873C288.517 103.236 288.301 103.686 288.283 104.223H288.187V104.22ZM288.187 120.756H288.28C288.301 121.269 288.517 121.713 288.925 122.088C289.336 122.463 289.834 122.649 290.422 122.649H290.832L290.862 123H288.184V120.756H288.187Z" fill="#D8C879"/>
<path d="M311.828 114.171L311.48 118.971C310.935 119.904 310.218 120.711 309.336 121.389C308.454 122.067 307.455 122.586 306.342 122.949C305.23 123.312 304.051 123.492 302.812 123.492C300.689 123.468 298.844 123.012 297.278 122.127C295.713 121.239 294.51 119.979 293.67 118.344C292.83 116.709 292.41 114.759 292.41 112.494C292.41 110.205 292.83 108.243 293.67 106.608C294.51 104.973 295.713 103.713 297.278 102.825C298.844 101.937 300.689 101.493 302.812 101.493C304.114 101.493 305.428 101.679 306.753 102.054C308.076 102.429 309.222 102.954 310.188 103.632L310.881 108.57H310.596C310.134 106.422 309.204 104.88 307.806 103.947C306.408 103.014 304.732 102.546 302.779 102.546C301.117 102.546 299.684 102.948 298.475 103.755C297.266 104.562 296.333 105.705 295.671 107.19C295.008 108.675 294.678 110.442 294.678 112.497C294.678 114.507 295.008 116.253 295.671 117.735C296.333 119.22 297.272 120.363 298.493 121.17C299.711 121.974 301.15 122.391 302.812 122.412C304.387 122.412 305.812 122.127 307.083 121.554C308.355 120.981 309.39 120.09 310.188 118.875C310.986 117.663 311.438 116.097 311.543 114.18H311.828V114.171Z" fill="#D8C879"/>
<path d="M315.863 104.22H315.8C315.779 103.683 315.59 103.233 315.233 102.87C314.876 102.507 314.435 102.327 313.91 102.327H313.532V101.976H315.866V104.22H315.863ZM315.863 120.756L316.274 122.997H313.532V122.646H313.973C314.498 122.646 314.93 122.46 315.266 122.085C315.602 121.713 315.782 121.269 315.803 120.753H315.863V120.756ZM317.815 101.979V122.997H315.797V101.979H317.815ZM317.722 104.22V101.979H320.056V102.33H319.678C319.174 102.33 318.736 102.51 318.37 102.873C318.001 103.236 317.818 103.686 317.818 104.223H317.722V104.22ZM326.295 121.911L326.232 122.997H317.752V121.911H326.295ZM328.061 117.987L326.328 122.997H321.538L322.608 121.911C323.658 121.911 324.504 121.743 325.146 121.404C325.788 121.065 326.307 120.597 326.706 120.003C327.105 119.406 327.452 118.737 327.746 117.99H328.061V117.987Z" fill="#D8C879"/>
<path d="M330.74 104.184H330.677C330.656 103.647 330.476 103.203 330.14 102.852C329.804 102.501 329.372 102.327 328.847 102.327H328.406V101.976H331.148L330.74 104.184ZM330.74 120.756L331.151 122.997H328.409V122.646H328.85C329.375 122.646 329.807 122.46 330.143 122.085C330.479 121.713 330.659 121.269 330.68 120.753H330.74V120.756ZM332.695 101.979V122.997H330.677V101.979H332.695ZM341.145 101.979V103.065H332.632V101.979H341.145ZM339.693 111.963V113.013H332.632V111.963H339.693ZM341.175 121.911L341.112 122.997H332.632V121.911H341.175ZM342.941 117.987L341.208 122.997H336.418L337.489 121.911C338.538 121.911 339.384 121.743 340.026 121.404C340.668 121.065 341.187 120.597 341.586 120.003C341.985 119.406 342.333 118.737 342.627 117.99H342.941V117.987ZM341.145 101.418V102.33L337.552 101.979C338.202 101.979 338.895 101.913 339.63 101.787C340.365 101.661 340.869 101.535 341.145 101.418ZM339.693 110.037V112.035H338.055V111.966C338.496 111.966 338.823 111.822 339.033 111.528C339.243 111.237 339.348 110.892 339.348 110.496V110.04H339.693V110.037ZM339.693 112.944V114.942H339.345V114.486C339.345 114.09 339.24 113.745 339.03 113.454C338.82 113.163 338.493 113.016 338.052 113.016V112.947H339.693V112.944ZM341.145 102.96V105.378H340.797V104.853C340.797 104.361 340.656 103.941 340.371 103.593C340.086 103.242 339.702 103.068 339.219 103.068V102.963H341.145V102.96Z" fill="#D8C879"/>
<path d="M349.96 101.607C350.545 101.607 351.057 101.631 351.495 101.676C351.933 101.724 352.314 101.775 352.641 101.832C352.965 101.892 353.247 101.961 353.487 102.042C353.727 102.123 353.94 102.198 354.129 102.27L354.159 105.72H353.784C353.784 104.769 353.49 104.019 352.905 103.473C352.32 102.927 351.411 102.654 350.179 102.654C349.135 102.654 348.241 102.975 347.497 103.611C346.756 104.25 346.393 105.033 346.414 105.963C346.414 106.266 346.45 106.572 346.522 106.887C346.594 107.202 346.72 107.508 346.897 107.811C347.074 108.114 347.32 108.414 347.635 108.717L353.967 114.153C354.447 114.594 354.804 115.158 355.032 115.842C355.263 116.526 355.386 117.207 355.407 117.879C355.428 118.902 355.188 119.841 354.684 120.702C354.183 121.563 353.508 122.241 352.662 122.742C351.816 123.24 350.881 123.492 349.858 123.492C349.252 123.492 348.598 123.435 347.899 123.318C347.197 123.201 346.546 123.021 345.941 122.778C345.335 122.535 344.834 122.226 344.435 121.854C344.372 121.53 344.342 121.116 344.342 120.618C344.342 120.12 344.378 119.589 344.453 119.034C344.525 118.476 344.624 117.978 344.75 117.537H345.125C345.041 118.584 345.176 119.478 345.533 120.219C345.887 120.963 346.411 121.524 347.101 121.908C347.791 122.292 348.595 122.472 349.516 122.448C350.812 122.403 351.831 122.034 352.572 121.35C353.313 120.666 353.685 119.754 353.685 118.614C353.685 118.056 353.595 117.552 353.418 117.099C353.241 116.646 352.953 116.223 352.554 115.827L346.285 110.463C345.701 109.905 345.302 109.29 345.095 108.615C344.885 107.943 344.78 107.304 344.78 106.698C344.78 105.747 345.011 104.886 345.47 104.121C345.928 103.356 346.552 102.744 347.335 102.291C348.127 101.832 349 101.607 349.96 101.607ZM354.099 101.919L354.129 102.546H351.903V101.919H354.099Z" fill="#D8C879"/>
<path d="M247.961 107.552L247.229 112.001L242.781 112.733L247.229 113.465L247.961 117.914L248.693 113.465L253.141 112.733L248.693 112.001L247.961 107.552Z" fill="#D8C879"/>
</svg>
