<svg width="547" height="36" viewBox="0 0 547 36" fill="none" xmlns="http://www.w3.org/2000/svg">
<path d="M3.48 4.29H3.34C3.32 3.46 3.03 2.74 2.5 2.15C1.96 1.55 1.32 1.25 0.56 1.25H0V0.770004H3.48V4.29ZM3.48 31.03V34.55H0V34.07H0.56C1.31 34.07 1.96 33.77 2.49 33.18C3.03 32.58 3.31 31.87 3.34 31.03H3.48ZM6.17 0.770004V34.56H3.34V0.770004H6.17ZM24.33 17.13V18.58H5.73V17.13H24.33ZM6.04 4.29V0.770004H9.51V1.25C9.48 1.25 9.29 1.25 8.95 1.25C8.2 1.25 7.55 1.55 7.02 2.14C6.48 2.74 6.2 3.46 6.17 4.29H6.04ZM6.04 31.03H6.17C6.2 31.87 6.48 32.58 7.02 33.18C7.56 33.78 8.2 34.07 8.95 34.07C9.3 34.07 9.49 34.07 9.51 34.07V34.55H6.04V31.03ZM24.06 4.29H23.93C23.93 3.45 23.65 2.74 23.1 2.14C22.55 1.55 21.9 1.25 21.14 1.25C20.79 1.25 20.6 1.25 20.58 1.25V0.770004H24.05V4.29H24.06ZM24.06 31.03V34.55H20.59V34.07C20.62 34.07 20.81 34.07 21.15 34.07C21.9 34.07 22.55 33.77 23.11 33.18C23.66 32.58 23.94 31.87 23.94 31.03H24.06ZM26.76 0.770004V34.56H23.94V0.770004H26.76ZM26.63 4.29V0.770004H30.1V1.25H29.54C28.79 1.25 28.14 1.55 27.61 2.14C27.07 2.74 26.79 3.45 26.76 4.29H26.63ZM26.63 31.03H26.76C26.79 31.87 27.07 32.58 27.61 33.18C28.15 33.78 28.79 34.07 29.54 34.07H30.1V34.55H26.63V31.03Z" fill="#404041"/>
<path d="M37.18 31.03C36.86 32 36.9 32.74 37.31 33.28C37.72 33.81 38.18 34.08 38.7 34.08H39.05V34.56H30.75V34.08H31.1C31.71 34.08 32.33 33.85 32.97 33.38C33.61 32.91 34.16 32.13 34.62 31.04H37.18V31.03ZM45.57 4.92L45.87 8.25L35.92 34.41H33.18L43.48 9.89C43.8 9.12 44.07 8.45 44.28 7.89C44.5 7.33 44.69 6.77 44.87 6.22C45.04 5.67 45.14 5.24 45.17 4.92H45.57ZM50.69 23.31V24.76H39.18V23.31H50.69ZM45.57 4.92L57.52 34.26H54.09L44.83 9.22L45.57 4.92ZM52.91 31.03H56.21C56.64 32.12 57.18 32.91 57.82 33.37C58.46 33.84 59.07 34.07 59.64 34.07H59.99V34.55H51.09V34.07H51.44C51.93 34.07 52.38 33.8 52.79 33.27C53.18 32.75 53.23 32 52.91 31.03Z" fill="#404041"/>
<path d="M62.81 31.56V34.55H59.55V34.07H60.29C60.96 34.07 61.52 33.83 61.98 33.35C62.44 32.87 62.68 32.27 62.68 31.56H62.81ZM62.72 4.87001L64.59 7.57001L64.63 34.55H62.68V10.91C62.68 9.27001 62.55 7.26001 62.29 4.88001H62.72V4.87001ZM62.72 4.87001L86.78 30.06L87.21 35.22L63.16 9.89001L62.72 4.87001ZM64.63 31.56C64.63 32.27 64.87 32.86 65.35 33.35C65.83 33.83 66.39 34.07 67.02 34.07H67.76V34.55H64.5V31.56H64.63ZM85.31 8.59001C85.28 7.88001 85.03 7.29001 84.57 6.80001C84.11 6.32001 83.54 6.08001 82.88 6.08001H82.14V5.60001H85.4V8.59001H85.31ZM87.22 5.60001V29.06C87.22 30.09 87.25 31.08 87.31 32.03C87.37 32.98 87.47 34.05 87.61 35.24H87.22L85.31 32.68V5.60001H87.22ZM87.09 8.59001V5.60001H90.35V6.08001H89.61C88.97 6.08001 88.41 6.32001 87.94 6.80001C87.47 7.28001 87.22 7.88001 87.22 8.59001H87.09Z" fill="#404041"/>
<path d="M118.6 12.33C117.47 10.16 115.86 8.49001 113.78 7.34001C111.69 6.18001 109.21 5.60001 106.35 5.60001H96.57V7.05001H106.35C109.71 7.05001 112.35 8.21001 114.27 10.54C116.2 12.88 117.16 16.06 117.16 20.08C117.16 24.1 116.2 27.28 114.27 29.61C112.35 31.94 109.71 33.11 106.35 33.11H97.01L97.09 34.56H106.35C109.21 34.56 111.69 33.97 113.78 32.79C115.86 31.62 117.47 29.96 118.6 27.8C119.73 25.64 120.29 23.07 120.29 20.08C120.29 17.08 119.73 14.5 118.6 12.33ZM97.09 34.56H97.7V33.11H97.01L97.09 34.56ZM96.57 5.60001V7.05001H97.7V5.60001H96.57ZM94.88 34.56H94.97V31.42H94.88V34.56ZM94.88 8.74001H94.97V5.60001H94.88V8.74001ZM94.88 31.42C94.85 32.11 94.61 32.72 94.17 33.24C93.72 33.77 93.04 34.07 92.34 34.07H91.83V34.56H94.96V31.42H94.88ZM91.84 5.60001V6.08001H92.29C92.94 6.08001 93.58 6.30001 94.04 6.75001C94.57 7.26001 94.84 7.92001 94.88 8.74001H94.97V5.60001H91.84Z" fill="#404041"/>
<path d="M97.7 24.51V33.11H97.01L97.09 34.56H94.97V31.42H94.88V8.74001H94.97V5.60001H96.57V7.05001H97.7V15.62C97.7 16.32 97.7 23.92 97.7 24.51Z" fill="#404041"/>
<path d="M127.7 4.25H124.27C123.92 3.19 123.36 2.42 122.6 1.96C121.83 1.49 121.12 1.26 120.45 1.26H120.1V0.77H129.74V1.25H129.35C128.8 1.25 128.31 1.51 127.89 2.02C127.47 2.54 127.41 3.28 127.7 4.25ZM123.27 1.06H126.79L134.87 29.87L134.13 35.13L123.27 1.06ZM142.73 0L143.08 3.91L135.43 29.78C135.14 30.91 134.92 31.88 134.78 32.7C134.63 33.52 134.55 34.33 134.52 35.14H134.13L133.35 30.85L142.33 0H142.73ZM142.73 0.05L151.85 28.48L150.89 35.14L141.25 5.26L142.73 0.05ZM160.36 1.06L152.24 29.78C151.95 30.94 151.73 31.93 151.57 32.75C151.41 33.57 151.32 34.37 151.29 35.14H150.9L150.38 30.36L157.94 1.06H160.36ZM157.1 4.25C157.33 3.28 157.26 2.54 156.88 2.03C156.5 1.52 156.03 1.26 155.45 1.26H155.06V0.77H163.62V1.25H163.27C162.6 1.25 161.88 1.48 161.1 1.95C160.32 2.42 159.77 3.18 159.45 4.24H157.1V4.25Z" fill="#404041"/>
<path d="M165.71 8.64H165.62C165.59 7.9 165.34 7.29 164.88 6.81C164.42 6.33 163.84 6.09 163.14 6.09H162.53V5.6H166.22L165.71 8.64ZM165.71 31.47L166.23 34.56H162.54V34.08H163.15C163.85 34.08 164.42 33.82 164.89 33.31C165.35 32.8 165.6 32.18 165.63 31.48H165.71V31.47ZM168.35 5.6V34.56H165.57V5.6H168.35ZM168.22 31.47H168.35C168.38 32.18 168.63 32.79 169.09 33.3C169.55 33.82 170.13 34.07 170.83 34.07H171.4L171.44 34.55H167.7L168.22 31.47ZM173.44 5.6C174.8 5.6 176.02 5.78 177.11 6.13C178.2 6.48 179.12 7 179.89 7.67C180.66 8.35 181.24 9.17 181.65 10.13C182.06 11.1 182.26 12.19 182.26 13.41C182.26 14.76 181.97 16.02 181.39 17.17C180.81 18.32 180.01 19.28 178.98 20.02C177.95 20.76 176.79 21.21 175.48 21.37C175.97 21.6 176.54 22.09 177.2 22.87C177.86 23.65 178.41 24.4 178.87 25.14C179.62 26.27 180.3 27.24 180.89 28.06C181.48 28.88 182.07 29.66 182.65 30.4C183.26 31.14 183.82 31.78 184.32 32.33C184.83 32.88 185.38 33.3 185.97 33.61C186.56 33.92 187.25 34.07 188.03 34.07V34.55H186.68C185.09 34.55 183.78 34.33 182.75 33.87C181.72 33.42 180.89 32.87 180.25 32.2C179.61 31.54 179.06 30.91 178.6 30.29C178.48 30.13 178.22 29.72 177.8 29.06C177.38 28.4 176.92 27.68 176.43 26.91C175.94 26.14 175.49 25.44 175.08 24.81C174.67 24.18 174.43 23.8 174.34 23.68C173.76 22.84 173.09 22.1 172.34 21.44C171.59 20.78 170.79 20.45 169.95 20.45V19.97C170.88 20 171.7 20 172.43 19.97C173.24 19.94 174.05 19.87 174.86 19.75C175.67 19.64 176.43 19.29 177.14 18.71C177.85 18.13 178.41 17.17 178.81 15.81C178.93 15.46 179.01 15.04 179.07 14.56C179.13 14.08 179.14 13.58 179.11 13.06C179.08 12.16 178.93 11.35 178.65 10.65C178.37 9.94 177.98 9.33 177.48 8.82C176.98 8.31 176.37 7.9 175.68 7.61C174.99 7.32 174.2 7.16 173.33 7.13C171.97 7.07 170.78 7.05 169.77 7.08C168.76 7.11 168.25 7.11 168.25 7.08C168.25 7.05 168.21 6.91 168.14 6.67C168.07 6.43 167.96 6.07 167.81 5.58H173.44V5.6Z" fill="#404041"/>
<path d="M191.72 8.69001H191.59C191.56 7.95001 191.26 7.33001 190.7 6.83001C190.14 6.33001 189.45 6.08001 188.64 6.08001C188.61 6.08001 188.41 6.08001 188.03 6.08001V5.60001H191.72V8.69001ZM191.72 31.47V34.56H188.03V34.08H188.64C189.45 34.08 190.14 33.82 190.7 33.31C191.26 32.8 191.56 32.18 191.59 31.48H191.72V31.47ZM194.33 5.60001V34.56H191.59V5.60001H194.33ZM194.2 8.69001V5.60001H197.89L197.85 6.08001H197.29C196.48 6.08001 195.79 6.33001 195.23 6.83001C194.67 7.33001 194.37 7.95001 194.34 8.69001H194.2ZM194.2 31.47H194.33C194.36 32.18 194.66 32.79 195.22 33.3C195.78 33.82 196.47 34.07 197.28 34.07H197.84L197.88 34.55H194.19V31.47H194.2Z" fill="#404041"/>
<path d="M199.15 4.78C199.41 4.88 199.81 4.99 200.35 5.12C200.89 5.25 201.49 5.35 202.15 5.43C202.82 5.51 203.44 5.55 204.02 5.55L199.15 6.03V4.78ZM223 5.55V7H199.15V5.55H223ZM201.8 6.9V7C201.13 7.03 200.61 7.28 200.21 7.75C199.82 8.22 199.62 8.79 199.62 9.46V10.23H199.14V6.9H201.8ZM209.75 31.47V34.56H206.58V34.08C206.61 34.08 206.78 34.08 207.1 34.08C207.8 34.08 208.39 33.82 208.88 33.31C209.37 32.8 209.63 32.18 209.66 31.48H209.75V31.47ZM212.49 5.74V34.55H209.67V5.74H212.49ZM212.36 31.47H212.49C212.52 32.18 212.78 32.79 213.27 33.3C213.76 33.82 214.36 34.07 215.05 34.07H215.53V34.55H212.36V31.47ZM223 4.78V6.03L218.13 5.55C218.71 5.55 219.33 5.51 219.98 5.43C220.63 5.35 221.23 5.24 221.78 5.12C222.33 4.99 222.74 4.87 223 4.78ZM223 6.9V10.23H222.52V9.46C222.52 8.79 222.32 8.21 221.93 7.75C221.54 7.28 221.01 7.03 220.35 7V6.9H223Z" fill="#404041"/>
<path d="M216.59 11.25C216.85 11.35 217.25 11.46 217.78 11.59C218.32 11.72 218.92 11.82 219.58 11.9C220.24 11.98 220.87 12.02 221.45 12.02L216.58 12.5V11.25H216.59ZM240.43 12.02V13.47H216.58V12.02H240.43ZM219.24 13.37V13.47C218.57 13.5 218.04 13.75 217.65 14.22C217.26 14.69 217.06 15.26 217.06 15.93V16.7H216.58V13.37H219.24ZM227.18 31.47V34.56H224.01V34.08C224.04 34.08 224.21 34.08 224.53 34.08C225.23 34.08 225.82 33.82 226.31 33.31C226.8 32.8 227.06 32.18 227.09 31.48H227.18V31.47ZM229.92 13.13V34.56H227.1V13.13H229.92ZM229.79 31.47H229.92C229.95 32.18 230.21 32.79 230.7 33.3C231.19 33.82 231.79 34.07 232.48 34.07H232.96V34.55H229.79V31.47ZM240.43 11.25V12.5L235.56 12.02C236.14 12.02 236.75 11.98 237.41 11.9C238.06 11.82 238.66 11.71 239.21 11.59C239.77 11.46 240.17 11.34 240.43 11.25ZM240.43 13.37V16.7H239.95V15.93C239.95 15.26 239.75 14.68 239.36 14.22C238.97 13.75 238.44 13.5 237.78 13.47V13.37H240.43Z" fill="#404041"/>
<path d="M244.23 8.64H244.14C244.11 7.9 243.86 7.29 243.4 6.81C242.94 6.33 242.34 6.09 241.62 6.09H241.01V5.6H244.79L244.23 8.64ZM244.23 31.47L244.79 34.56H241.01V34.08H241.62C242.34 34.08 242.94 33.82 243.4 33.31C243.86 32.8 244.11 32.18 244.14 31.48H244.23V31.47ZM246.93 5.6V34.56H244.15V5.6H246.93ZM258.57 5.6V7.1H246.84V5.6H258.57ZM256.57 19.35V20.8H246.84V19.35H256.57ZM258.61 33.06L258.52 34.56H246.84V33.06H258.61ZM261.05 27.66L258.66 34.56H252.06L253.54 33.06C254.99 33.06 256.15 32.83 257.04 32.36C257.92 31.89 258.64 31.25 259.19 30.43C259.74 29.61 260.22 28.68 260.62 27.65H261.05V27.66ZM258.57 4.83V6.08L253.62 5.6C254.52 5.6 255.47 5.51 256.49 5.33C257.51 5.15 258.19 4.99 258.57 4.83ZM256.57 16.7V19.45H254.31V19.35C254.92 19.35 255.37 19.15 255.66 18.75C255.95 18.35 256.09 17.87 256.09 17.33V16.7H256.57ZM256.57 20.71V23.46H256.09V22.83C256.09 22.28 255.94 21.81 255.66 21.41C255.38 21.01 254.92 20.81 254.31 20.81V20.71H256.57ZM258.57 6.95V10.28H258.09V9.56C258.09 8.88 257.89 8.31 257.5 7.82C257.11 7.34 256.58 7.1 255.91 7.1V6.95H258.57Z" fill="#404041"/>
<path d="M265.39 31.56V34.55H262.13V34.07H262.87C263.54 34.07 264.1 33.83 264.56 33.35C265.02 32.87 265.25 32.27 265.25 31.56H265.39ZM265.3 4.87L267.17 7.57L267.21 34.55H265.25V10.91C265.25 9.27 265.12 7.26 264.86 4.88H265.3V4.87ZM265.3 4.87L289.36 30.06L289.79 35.22L265.74 9.89L265.3 4.87ZM267.21 31.56C267.21 32.27 267.45 32.86 267.93 33.35C268.41 33.83 268.97 34.07 269.6 34.07H270.34V34.55H267.08V31.56H267.21ZM287.89 8.59C287.86 7.88 287.61 7.29 287.15 6.8C286.69 6.32 286.12 6.08 285.46 6.08H284.72V5.6H287.98V8.59H287.89ZM289.8 5.6V29.06C289.8 30.09 289.83 31.08 289.89 32.03C289.95 32.98 290.05 34.05 290.19 35.24H289.8L287.89 32.68V5.6H289.8ZM289.67 8.59V5.6H292.93V6.08H292.19C291.55 6.08 291 6.32 290.52 6.8C290.04 7.28 289.8 7.88 289.8 8.59H289.67Z" fill="#404041"/>
<path d="M326.8 20.46L326.28 28.04C325.53 29.42 324.58 30.66 323.44 31.73C322.3 32.81 320.95 33.66 319.4 34.29C317.85 34.92 316.08 35.23 314.08 35.23C311.07 35.2 308.39 34.46 306.04 33.01C303.7 31.56 301.86 29.53 300.55 26.9C299.23 24.28 298.57 21.18 298.57 17.61C298.57 14.1 299.22 11.04 300.52 8.42C301.82 5.8 303.65 3.75 306.02 2.29C308.38 0.829996 311.15 0.0899963 314.34 0.0899963C316.48 0.0899963 318.42 0.399996 320.14 1.03C321.86 1.66 323.36 2.44 324.64 3.37L325.51 10.18H325.12C324.48 7.35 323.18 5.2 321.21 3.74C319.24 2.28 316.95 1.54 314.35 1.54C311.8 1.54 309.59 2.21 307.73 3.54C305.86 4.88 304.41 6.74 303.39 9.14C302.36 11.54 301.85 14.35 301.85 17.56C301.85 20.78 302.36 23.59 303.39 26.01C304.42 28.42 305.85 30.31 307.69 31.66C309.53 33.01 311.66 33.72 314.1 33.78C316.16 33.78 318.06 33.35 319.81 32.5C321.56 31.65 323.03 30.25 324.22 28.3C325.41 26.35 326.16 23.74 326.48 20.46H326.8Z" fill="#404041"/>
<path d="M332.79 8.68999H332.66C332.63 7.94999 332.38 7.32999 331.9 6.82999C331.42 6.32999 330.84 6.07999 330.14 6.07999H329.62V5.59999H332.79V8.68999ZM332.79 31.47V34.56H329.62V34.08H330.14C330.84 34.08 331.42 33.82 331.9 33.31C332.38 32.8 332.63 32.18 332.66 31.48H332.79V31.47ZM335.45 5.59999V34.56H332.67V5.59999H335.45ZM351.91 19.55V21H334.97V19.55H351.91ZM335.31 8.68999V5.59999H338.48V6.07999H337.96C337.26 6.07999 336.67 6.32999 336.18 6.82999C335.69 7.32999 335.44 7.94999 335.44 8.68999H335.31ZM335.31 31.47H335.44C335.44 32.18 335.69 32.79 336.18 33.3C336.67 33.82 337.27 34.07 337.96 34.07H338.48V34.55H335.31V31.47ZM351.6 8.68999H351.47C351.44 7.94999 351.19 7.32999 350.71 6.82999C350.23 6.32999 349.65 6.07999 348.95 6.07999H348.43V5.59999H351.6V8.68999ZM351.6 31.47V34.56H348.43V34.08H348.95C349.65 34.08 350.23 33.82 350.71 33.31C351.19 32.8 351.44 32.18 351.47 31.48H351.6V31.47ZM354.25 5.59999V34.56H351.47V5.59999H354.25ZM354.12 8.68999V5.59999H357.29V6.07999H356.77C356.07 6.07999 355.49 6.32999 355.01 6.82999C354.53 7.32999 354.28 7.94999 354.25 8.68999H354.12ZM354.12 31.47H354.25C354.28 32.18 354.53 32.79 355.01 33.3C355.49 33.82 356.07 34.07 356.77 34.07H357.29V34.55H354.12V31.47Z" fill="#404041"/>
<path d="M363.46 8.64H363.37C363.34 7.9 363.09 7.29 362.63 6.81C362.17 6.33 361.59 6.09 360.89 6.09H360.28V5.6H363.97L363.46 8.64ZM363.46 31.47L363.98 34.56H360.29V34.08H360.9C361.6 34.08 362.17 33.82 362.64 33.31C363.1 32.8 363.35 32.18 363.38 31.48H363.46V31.47ZM366.11 5.6V34.56H363.33V5.6H366.11ZM365.98 31.47H366.11C366.14 32.18 366.38 32.79 366.85 33.3C367.31 33.82 367.89 34.07 368.59 34.07H369.15L369.19 34.55H365.45L365.98 31.47ZM371.19 5.6C372.55 5.6 373.77 5.78 374.86 6.13C375.95 6.48 376.87 7 377.64 7.67C378.41 8.34 378.99 9.17 379.4 10.13C379.81 11.1 380.01 12.19 380.01 13.41C380.01 14.76 379.72 16.02 379.14 17.17C378.56 18.33 377.76 19.28 376.73 20.02C375.7 20.76 374.54 21.21 373.23 21.37C373.72 21.6 374.29 22.09 374.95 22.87C375.6 23.64 376.16 24.4 376.62 25.14C377.37 26.27 378.05 27.24 378.64 28.06C379.23 28.88 379.82 29.66 380.4 30.4C381.01 31.14 381.57 31.78 382.07 32.33C382.57 32.88 383.13 33.3 383.72 33.61C384.31 33.92 385 34.07 385.78 34.07V34.55H384.43C382.84 34.55 381.53 34.33 380.5 33.87C379.47 33.42 378.64 32.87 378 32.2C377.36 31.54 376.81 30.91 376.35 30.29C376.23 30.13 375.97 29.72 375.55 29.06C375.13 28.4 374.67 27.68 374.18 26.91C373.69 26.14 373.24 25.44 372.83 24.81C372.42 24.18 372.18 23.8 372.09 23.68C371.51 22.84 370.84 22.1 370.09 21.44C369.34 20.78 368.54 20.45 367.7 20.45V19.97C368.63 20 369.45 20 370.18 19.97C370.99 19.94 371.8 19.87 372.61 19.75C373.42 19.64 374.18 19.29 374.89 18.71C375.6 18.13 376.16 17.17 376.56 15.81C376.68 15.46 376.76 15.04 376.82 14.56C376.88 14.08 376.89 13.58 376.86 13.06C376.83 12.16 376.68 11.35 376.4 10.65C376.12 9.94 375.73 9.33 375.23 8.82C374.72 8.31 374.12 7.9 373.43 7.61C372.73 7.32 371.95 7.16 371.08 7.13C369.72 7.07 368.53 7.05 367.52 7.08C366.51 7.11 366 7.11 366 7.08C366 7.05 365.96 6.91 365.89 6.67C365.82 6.43 365.71 6.07 365.56 5.58H371.19V5.6Z" fill="#404041"/>
<path d="M412.24 13.92C411.49 12.07 410.44 10.47 409.09 9.12C408.86 8.89 408.62 8.66 408.37 8.45L406.54 9.84C407.36 10.72 408.06 11.74 408.64 12.91C409.65 14.95 410.16 17.34 410.16 20.08C410.16 22.78 409.65 25.16 408.64 27.22C407.62 29.28 406.25 30.89 404.51 32.05C402.77 33.2 400.83 33.78 398.69 33.78C397.08 33.78 395.58 33.44 394.19 32.78L393.87 33.02L392.61 33.98C392.74 34.04 392.87 34.1 393 34.15C394.77 34.87 396.66 35.23 398.69 35.23C400.72 35.23 402.62 34.87 404.4 34.15C406.18 33.42 407.75 32.38 409.09 31.03C410.44 29.68 411.49 28.08 412.24 26.23C413 24.38 413.37 22.33 413.37 20.08C413.37 17.83 413 15.77 412.24 13.92ZM388.79 27.22C387.77 25.16 387.27 22.78 387.27 20.08C387.27 17.34 387.77 14.95 388.79 12.91C389.8 10.87 391.18 9.27 392.91 8.11C394.65 6.95 396.58 6.37 398.69 6.37C400.83 6.37 402.77 6.95 404.51 8.11C404.75 8.27 404.98 8.44 405.21 8.62L406.91 7.33C406.13 6.81 405.29 6.37 404.4 6.01C402.62 5.28 400.72 4.92 398.69 4.92C396.66 4.92 394.77 5.28 393 6.01C391.23 6.73 389.68 7.77 388.33 9.12C386.98 10.47 385.93 12.07 385.18 13.92C384.43 15.77 384.05 17.83 384.05 20.08C384.05 22.33 384.43 24.38 385.18 26.23C385.93 28.08 386.98 29.68 388.33 31.03C389.11 31.81 389.96 32.49 390.88 33.06L392.54 31.8L392.55 31.79C390.99 30.66 389.73 29.14 388.79 27.22Z" fill="#404041"/>
<path d="M418.32 31.56V34.55H415.06V34.07H415.8C416.47 34.07 417.03 33.83 417.49 33.35C417.95 32.87 418.18 32.27 418.18 31.56H418.32ZM418.24 4.87L420.11 7.57L420.15 34.55H418.19V10.91C418.19 9.27 418.06 7.26 417.8 4.88H418.24V4.87ZM418.24 4.87L442.3 30.06L442.73 35.22L418.67 9.89L418.24 4.87ZM420.15 31.56C420.15 32.27 420.39 32.86 420.87 33.35C421.35 33.83 421.91 34.07 422.54 34.07H423.28V34.55H420.02V31.56H420.15ZM440.83 8.59C440.8 7.88 440.55 7.29 440.09 6.8C439.63 6.32 439.06 6.08 438.4 6.08H437.66V5.6H440.92V8.59H440.83ZM442.74 5.6V29.06C442.74 30.09 442.77 31.08 442.83 32.03C442.89 32.98 442.99 34.05 443.13 35.24H442.74L440.83 32.68V5.6H442.74ZM442.61 8.59V5.6H445.87V6.08H445.13C444.49 6.08 443.94 6.32 443.46 6.8C442.98 7.28 442.74 7.88 442.74 8.59H442.61Z" fill="#404041"/>
<path d="M451.73 8.68999H451.6C451.57 7.94999 451.27 7.32999 450.71 6.82999C450.15 6.32999 449.46 6.07999 448.65 6.07999C448.62 6.07999 448.42 6.07999 448.04 6.07999V5.59999H451.73V8.68999ZM451.73 31.47V34.56H448.04V34.08H448.65C449.46 34.08 450.15 33.82 450.71 33.31C451.27 32.8 451.57 32.18 451.6 31.48H451.73V31.47ZM454.33 5.59999V34.56H451.59V5.59999H454.33ZM454.2 8.68999V5.59999H457.89L457.85 6.07999H457.29C456.48 6.07999 455.79 6.32999 455.23 6.82999C454.67 7.32999 454.37 7.94999 454.34 8.68999H454.2ZM454.2 31.47H454.33C454.36 32.18 454.66 32.79 455.22 33.3C455.78 33.82 456.47 34.07 457.28 34.07H457.84L457.88 34.55H454.19V31.47H454.2Z" fill="#404041"/>
<path d="M486.78 22.39L486.3 29C485.55 30.29 484.56 31.4 483.35 32.33C482.13 33.26 480.76 33.98 479.22 34.48C477.68 34.98 476.06 35.23 474.36 35.23C471.43 35.2 468.89 34.57 466.74 33.35C464.58 32.13 462.92 30.39 461.77 28.14C460.61 25.89 460.03 23.2 460.03 20.08C460.03 16.93 460.61 14.22 461.77 11.97C462.93 9.71999 464.59 7.97999 466.74 6.75999C468.89 5.53999 471.44 4.92999 474.36 4.92999C476.15 4.92999 477.96 5.18999 479.79 5.69999C481.61 6.21999 483.19 6.93999 484.52 7.86999L485.48 14.67H485.09C484.45 11.71 483.17 9.58999 481.25 8.29999C479.32 7.00999 477.01 6.36999 474.32 6.36999C472.03 6.36999 470.06 6.92999 468.39 8.03999C466.72 9.14999 465.44 10.73 464.52 12.77C463.61 14.81 463.15 17.25 463.15 20.08C463.15 22.85 463.61 25.25 464.52 27.3C465.43 29.34 466.73 30.92 468.41 32.03C470.09 33.14 472.07 33.71 474.36 33.74C476.53 33.74 478.49 33.35 480.25 32.56C482 31.77 483.43 30.54 484.53 28.87C485.63 27.2 486.25 25.04 486.4 22.4H486.78V22.39Z" fill="#404041"/>
<path d="M492.34 8.68999H492.25C492.22 7.94999 491.96 7.32999 491.47 6.82999C490.98 6.32999 490.37 6.07999 489.65 6.07999H489.13V5.59999H492.34V8.68999ZM492.34 31.47L492.9 34.56H489.12V34.08H489.73C490.45 34.08 491.05 33.82 491.51 33.31C491.97 32.8 492.22 32.18 492.25 31.48H492.34V31.47ZM495.03 5.59999V34.56H492.25V5.59999H495.03ZM494.9 8.68999V5.59999H498.11V6.07999H497.59C496.89 6.07999 496.29 6.32999 495.79 6.82999C495.29 7.32999 495.03 7.94999 495.03 8.68999H494.9ZM506.72 33.06L506.63 34.56H494.95V33.06H506.72ZM509.15 27.66L506.76 34.56H500.16L501.64 33.06C503.09 33.06 504.25 32.83 505.14 32.36C506.02 31.89 506.74 31.25 507.29 30.43C507.84 29.61 508.32 28.68 508.72 27.65H509.15V27.66Z" fill="#404041"/>
<path d="M512.84 8.64H512.75C512.72 7.9 512.47 7.29 512.01 6.81C511.55 6.33 510.95 6.09 510.23 6.09H509.62V5.6H513.4L512.84 8.64ZM512.84 31.47L513.4 34.56H509.62V34.08H510.23C510.95 34.08 511.55 33.82 512.01 33.31C512.47 32.8 512.72 32.18 512.75 31.48H512.84V31.47ZM515.54 5.6V34.56H512.76V5.6H515.54ZM527.18 5.6V7.1H515.45V5.6H527.18ZM525.18 19.35V20.8H515.45V19.35H525.18ZM527.22 33.06L527.13 34.56H515.45V33.06H527.22ZM529.65 27.66L527.26 34.56H520.66L522.14 33.06C523.59 33.06 524.75 32.83 525.64 32.36C526.52 31.89 527.24 31.25 527.79 30.43C528.34 29.61 528.82 28.68 529.22 27.65H529.65V27.66ZM527.18 4.83V6.08L522.23 5.6C523.13 5.6 524.08 5.51 525.1 5.33C526.12 5.15 526.8 4.99 527.18 4.83ZM525.18 16.7V19.45H522.92V19.35C523.53 19.35 523.98 19.15 524.27 18.75C524.56 18.35 524.7 17.87 524.7 17.33V16.7H525.18ZM525.18 20.71V23.46H524.7V22.83C524.7 22.28 524.55 21.81 524.27 21.41C523.99 21.01 523.53 20.81 522.92 20.81V20.71H525.18ZM527.18 6.95V10.28H526.7V9.56C526.7 8.88 526.5 8.31 526.11 7.82C525.72 7.34 525.19 7.1 524.52 7.1V6.95H527.18Z" fill="#404041"/>
<path d="M539.33 5.08C540.14 5.08 540.84 5.11 541.45 5.18C542.05 5.24 542.58 5.32 543.03 5.4C543.48 5.48 543.86 5.58 544.2 5.69C544.53 5.8 544.83 5.91 545.09 6L545.13 10.75H544.61C544.61 9.44 544.21 8.41 543.4 7.65C542.59 6.9 541.34 6.52 539.64 6.52C538.2 6.52 536.97 6.96 535.95 7.84C534.93 8.72 534.43 9.8 534.46 11.08C534.46 11.5 534.51 11.92 534.61 12.35C534.71 12.78 534.88 13.21 535.13 13.62C535.38 14.04 535.71 14.45 536.15 14.87L544.88 22.36C545.54 22.97 546.03 23.74 546.35 24.69C546.67 25.63 546.84 26.57 546.87 27.5C546.9 28.91 546.57 30.2 545.88 31.39C545.19 32.57 544.26 33.51 543.09 34.2C541.92 34.89 540.63 35.23 539.22 35.23C538.38 35.23 537.48 35.15 536.52 34.99C535.55 34.83 534.65 34.58 533.82 34.25C532.98 33.91 532.29 33.49 531.75 32.98C531.66 32.53 531.62 31.96 531.62 31.28C531.62 30.59 531.67 29.86 531.77 29.1C531.87 28.33 532.01 27.64 532.18 27.04H532.7C532.58 28.48 532.77 29.71 533.26 30.74C533.75 31.76 534.47 32.54 535.42 33.07C536.37 33.6 537.48 33.85 538.75 33.81C540.54 33.75 541.94 33.24 542.96 32.3C543.98 31.36 544.49 30.1 544.49 28.53C544.49 27.76 544.37 27.07 544.12 26.44C543.87 25.82 543.48 25.23 542.93 24.69L534.29 17.3C533.48 16.53 532.94 15.68 532.65 14.76C532.36 13.83 532.22 12.95 532.22 12.12C532.22 10.81 532.54 9.62 533.17 8.57C533.8 7.51 534.66 6.67 535.74 6.05C536.82 5.43 538 5.08 539.33 5.08ZM545.03 5.52L545.07 6.38H542V5.52H545.03Z" fill="#404041"/>
<path d="M398.77 13.28L397.77 19.41L391.64 20.42L397.77 21.42L398.77 27.55L399.78 21.42L405.91 20.42L399.78 19.41L398.77 13.28Z" fill="#404041"/>
</svg>
